<svg width="897" height="124" viewBox="0 0 897 124" fill="none" xmlns="http://www.w3.org/2000/svg">
<g id="buttonsinagriculture">
<g id="problem">
<rect id="Rectangle 93" x="24" y="22" width="402" height="80" fill="#D81C1C" fill-opacity="0.8" stroke="black" stroke-width="2"/>
<path id="The problem with farmed meats." d="M88.6914 43.666C88.2096 43.666 87.4674 43.627 86.4648 43.5488C85.4883 43.4772 84.7461 43.4447 84.2383 43.4512H83.5449C83.5645 44.3496 83.6523 45.8079 83.8086 47.8262C83.9518 49.7077 84.0234 51.1693 84.0234 52.2109C84.0234 52.4388 84.0462 52.7839 84.0918 53.2461C84.1374 53.7083 84.1602 54.0566 84.1602 54.291C84.1602 54.7337 84.0885 55.1146 83.9453 55.4336C83.763 55.8633 83.4798 56.0781 83.0957 56.0781C82.8353 56.0781 82.6009 55.987 82.3926 55.8047C82.1842 55.6224 82.0801 55.388 82.0801 55.1016C82.0801 55.0039 82.0964 54.8574 82.1289 54.6621C82.1615 54.4668 82.1777 54.3203 82.1777 54.2227C82.1777 53.9036 82.1549 53.4251 82.1094 52.7871C82.0703 52.1491 82.0508 51.6673 82.0508 51.3418C82.0508 50.4108 81.9759 49.1022 81.8262 47.416C81.6699 45.5931 81.582 44.2845 81.5625 43.4902L80.6738 43.5C79.248 43.5 78.1283 43.3958 77.3145 43.1875C76.7871 43.0508 76.5234 42.7285 76.5234 42.2207C76.5234 41.9538 76.6081 41.7194 76.7773 41.5176C76.9727 41.2897 77.2233 41.1855 77.5293 41.2051C77.7572 41.2181 78.278 41.2767 79.0918 41.3809C79.7428 41.459 80.2702 41.498 80.6738 41.498C81.0645 41.498 81.6569 41.4915 82.4512 41.4785C83.2454 41.459 83.8379 41.4492 84.2285 41.4492C84.7298 41.4492 85.472 41.485 86.4551 41.5566C87.4447 41.6283 88.1901 41.6641 88.6914 41.6641C88.9714 41.6641 89.2057 41.7617 89.3945 41.957C89.5833 42.1458 89.6777 42.3835 89.6777 42.6699C89.6777 42.9499 89.5833 43.1875 89.3945 43.3828C89.2057 43.5716 88.9714 43.666 88.6914 43.666ZM98.5156 56.6055C98.0534 56.6055 97.7507 56.3581 97.6074 55.8633C97.4577 55.3294 97.321 54.571 97.1973 53.5879C97.0801 52.6439 97.0215 51.8691 97.0215 51.2637C97.0215 51.0944 97.028 50.8372 97.041 50.4922C97.0605 50.1471 97.0703 49.89 97.0703 49.7207C97.0703 48.4967 96.7643 47.8848 96.1523 47.8848C95.3255 47.8848 94.5866 48.2591 93.9355 49.0078C93.6035 49.3919 93.1478 50.1243 92.5684 51.2051C92.5684 53.6855 92.4642 55.1536 92.2559 55.6094C92.0736 56.013 91.7904 56.2148 91.4062 56.2148C91.1393 56.2148 90.9049 56.1237 90.7031 55.9414C90.5013 55.7591 90.4004 55.5378 90.4004 55.2773C90.4004 55.1862 90.4297 55.043 90.4883 54.8477C90.5404 54.6849 90.5762 54.2096 90.5957 53.4219L90.625 51.9766L90.6543 44.7988C90.6999 43.9915 90.7227 43.4479 90.7227 43.168C90.7227 42.8359 90.6901 42.5234 90.625 42.2305C90.5664 41.931 90.5371 41.6217 90.5371 41.3027C90.5371 41.0293 90.6315 40.8047 90.8203 40.6289C91.0091 40.4466 91.2402 40.3555 91.5137 40.3555C92.0475 40.3555 92.36 40.6419 92.4512 41.2148C92.5553 41.8464 92.6074 42.416 92.6074 42.9238C92.6074 43.6074 92.5846 44.3203 92.5391 45.0625C92.5 45.7721 92.4837 46.485 92.4902 47.2012L92.5 48.0605C93.0339 47.3444 93.6035 46.8105 94.209 46.459C94.821 46.1009 95.4688 45.9219 96.1523 45.9219C97.2331 45.9219 97.9753 46.2734 98.3789 46.9766C98.6654 47.4714 98.8281 48.3047 98.8672 49.4766L98.9453 51.3418L99.1406 53.373C99.2318 54.1348 99.3424 54.8053 99.4727 55.3848C99.4987 55.4954 99.5117 55.5898 99.5117 55.668C99.5117 55.9349 99.4141 56.1562 99.2188 56.332C99.0234 56.5143 98.7891 56.6055 98.5156 56.6055ZM106.465 56.4492C104.993 56.4492 103.802 56.0814 102.891 55.3457C101.895 54.5319 101.396 53.3926 101.396 51.9277C101.396 50.235 101.807 48.8158 102.627 47.6699C103.519 46.4199 104.71 45.7949 106.201 45.7949C107.282 45.7949 108.164 45.9772 108.848 46.3418C109.688 46.791 110.107 47.4811 110.107 48.4121C110.107 49.0632 109.74 49.6556 109.004 50.1895C108.678 50.4238 107.988 50.7884 106.934 51.2832L103.203 53.0508C103.568 53.5911 104.02 53.998 104.561 54.2715C105.107 54.5449 105.742 54.6816 106.465 54.6816C106.914 54.6816 107.441 54.597 108.047 54.4277C108.815 54.2129 109.31 53.9329 109.531 53.5879C109.753 53.2363 109.99 53.0605 110.244 53.0605C110.472 53.0605 110.674 53.1484 110.85 53.3242C111.032 53.4935 111.123 53.6921 111.123 53.9199C111.123 54.6426 110.54 55.2643 109.375 55.7852C108.379 56.2279 107.409 56.4492 106.465 56.4492ZM106.201 47.5527C105.407 47.5527 104.746 47.862 104.219 48.4805C103.691 49.0924 103.298 50.0169 103.037 51.2539L106.035 49.8281C107.214 49.2552 108.053 48.7572 108.555 48.334C107.995 47.8132 107.21 47.5527 106.201 47.5527ZM122.988 56.3418C122.337 56.3418 121.621 56.2376 120.84 56.0293L120.82 60.6973C120.82 60.9837 120.729 61.2181 120.547 61.4004C120.371 61.5827 120.143 61.6738 119.863 61.6738C119.583 61.6738 119.352 61.5827 119.17 61.4004C118.994 61.2181 118.906 60.9837 118.906 60.6973L118.936 56.791V52.8945C118.916 51.4688 118.867 50.1699 118.789 48.998L118.643 47.0156C118.643 46.5534 118.727 46.1628 118.896 45.8438C119.092 45.4596 119.375 45.2676 119.746 45.2676C120 45.2676 120.212 45.3587 120.381 45.541C120.557 45.7168 120.645 45.9349 120.645 46.1953C120.645 46.2539 120.635 46.3613 120.615 46.5176C120.583 46.7194 120.56 46.9049 120.547 47.0742C121.107 46.6901 121.647 46.4036 122.168 46.2148C122.689 46.0195 123.187 45.9219 123.662 45.9219C124.997 45.9219 125.973 46.5143 126.592 47.6992C127.08 48.6367 127.324 49.877 127.324 51.4199C127.324 52.8262 126.947 53.985 126.191 54.8965C125.391 55.86 124.323 56.3418 122.988 56.3418ZM123.662 47.875C123.063 47.875 122.523 48.0085 122.041 48.2754C121.696 48.4642 121.26 48.8092 120.732 49.3105C120.817 50.7884 120.859 52.3411 120.859 53.9688C121.569 54.2422 122.279 54.3789 122.988 54.3789C123.802 54.3789 124.424 54.0762 124.854 53.4707C125.225 52.9434 125.41 52.2598 125.41 51.4199C125.41 50.235 125.264 49.3496 124.971 48.7637C124.684 48.1712 124.248 47.875 123.662 47.875ZM137.139 48.7832C137.093 49.597 136.768 50.0039 136.162 50.0039C135.602 50.0039 135.322 49.6816 135.322 49.0371C135.322 48.9134 135.312 48.6855 135.293 48.3535L135.264 47.5332C134.235 47.6569 133.411 47.9466 132.793 48.4023C132.214 48.8255 131.732 49.4635 131.348 50.3164L131.367 55.668C131.367 56.3255 131.045 56.6543 130.4 56.6543C129.827 56.6543 129.541 56.3255 129.541 55.668V48.8125C129.541 48.5977 129.548 48.2754 129.561 47.8457C129.58 47.416 129.59 47.0938 129.59 46.8789C129.59 46.2214 129.876 45.8926 130.449 45.8926C131.087 45.8926 131.41 46.4329 131.416 47.5137C132.666 46.3092 134.053 45.707 135.576 45.707C136.104 45.707 136.497 45.9056 136.758 46.3027C137.018 46.6999 137.148 47.2988 137.148 48.0996C137.148 48.4382 137.145 48.666 137.139 48.7832ZM142.812 56.5762C141.719 56.5762 140.778 56.1725 139.99 55.3652C139.111 54.4668 138.649 53.2591 138.604 51.7422C138.564 50.2708 138.936 48.9753 139.717 47.8555C140.628 46.5339 141.898 45.873 143.525 45.873C144.827 45.873 145.814 46.4688 146.484 47.6602C147.018 48.6237 147.275 49.7826 147.256 51.1367C147.236 52.582 146.859 53.8158 146.123 54.8379C145.29 55.9967 144.186 56.5762 142.812 56.5762ZM143.398 47.8555C142.441 47.849 141.696 48.3047 141.162 49.2227C140.739 49.9583 140.527 50.7982 140.527 51.7422C140.527 52.6862 140.785 53.4219 141.299 53.9492C141.729 54.3854 142.233 54.6035 142.812 54.6035C143.49 54.6035 144.072 54.3561 144.561 53.8613C145.114 53.3145 145.407 52.5755 145.439 51.6445C145.531 49.125 144.85 47.862 143.398 47.8555ZM154.238 56.4102C153.242 56.4102 152.337 56.2148 151.523 55.8242C151.315 56.1367 151.061 56.293 150.762 56.293C150.514 56.293 150.303 56.2051 150.127 56.0293C149.958 55.86 149.873 55.6452 149.873 55.3848C149.873 55.2155 149.88 54.9648 149.893 54.6328C149.912 54.3008 149.922 54.0501 149.922 53.8809C149.922 53.1908 149.902 52.1589 149.863 50.7852C149.831 49.4049 149.814 48.3698 149.814 47.6797C149.814 47.2044 149.818 46.306 149.824 44.9844C149.831 43.6562 149.834 42.7513 149.834 42.2695C149.834 41.8789 149.915 41.5273 150.078 41.2148C150.293 40.8177 150.589 40.6191 150.967 40.6191C151.455 40.6191 151.699 40.9023 151.699 41.4688C151.699 41.5599 151.683 41.6934 151.65 41.8691C151.618 42.0449 151.602 42.1784 151.602 42.2695L151.572 44.4082L151.553 46.8984C152.119 46.5143 152.656 46.2279 153.164 46.0391C153.678 45.8438 154.16 45.7461 154.609 45.7461C156.009 45.7461 157.145 46.2832 158.018 47.3574C158.838 48.3665 159.248 49.6068 159.248 51.0781C159.248 52.5625 158.77 53.8223 157.812 54.8574C156.855 55.8926 155.664 56.4102 154.238 56.4102ZM154.609 47.5918C154.076 47.5918 153.529 47.7415 152.969 48.041C152.695 48.1908 152.227 48.513 151.562 49.0078L151.543 50.6973L151.553 52.2207L151.562 53.8223C151.875 53.9655 152.314 54.1478 152.881 54.3691C153.285 54.4928 153.737 54.5547 154.238 54.5547C155.182 54.5547 155.957 54.2227 156.562 53.5586C157.168 52.8945 157.471 52.0677 157.471 51.0781C157.471 50.1081 157.227 49.2975 156.738 48.6465C156.211 47.9434 155.501 47.5918 154.609 47.5918ZM164.033 48.3242L163.887 53.1777C163.887 53.6921 163.861 54.4473 163.809 55.4434C163.743 56.0944 163.424 56.4199 162.852 56.4199C162.214 56.4199 161.895 56.0879 161.895 55.4238C161.895 54.6361 161.93 53.4544 162.002 51.8789C162.074 50.2969 162.109 49.112 162.109 48.3242C162.109 47.2956 162.126 46.1204 162.158 44.7988C162.191 43.4707 162.207 42.2923 162.207 41.2637C162.207 40.6126 162.526 40.2871 163.164 40.2871C163.809 40.2871 164.131 40.6126 164.131 41.2637C164.131 42.2923 164.115 43.4707 164.082 44.7988C164.049 46.1204 164.033 47.2956 164.033 48.3242ZM171.602 56.4492C170.13 56.4492 168.939 56.0814 168.027 55.3457C167.031 54.5319 166.533 53.3926 166.533 51.9277C166.533 50.235 166.943 48.8158 167.764 47.6699C168.656 46.4199 169.847 45.7949 171.338 45.7949C172.419 45.7949 173.301 45.9772 173.984 46.3418C174.824 46.791 175.244 47.4811 175.244 48.4121C175.244 49.0632 174.876 49.6556 174.141 50.1895C173.815 50.4238 173.125 50.7884 172.07 51.2832L168.34 53.0508C168.704 53.5911 169.157 53.998 169.697 54.2715C170.244 54.5449 170.879 54.6816 171.602 54.6816C172.051 54.6816 172.578 54.597 173.184 54.4277C173.952 54.2129 174.447 53.9329 174.668 53.5879C174.889 53.2363 175.127 53.0605 175.381 53.0605C175.609 53.0605 175.811 53.1484 175.986 53.3242C176.169 53.4935 176.26 53.6921 176.26 53.9199C176.26 54.6426 175.677 55.2643 174.512 55.7852C173.516 56.2279 172.546 56.4492 171.602 56.4492ZM171.338 47.5527C170.544 47.5527 169.883 47.862 169.355 48.4805C168.828 49.0924 168.434 50.0169 168.174 51.2539L171.172 49.8281C172.35 49.2552 173.19 48.7572 173.691 48.334C173.132 47.8132 172.347 47.5527 171.338 47.5527ZM190.4 56.8105C189.867 56.8105 189.554 56.5273 189.463 55.9609C189.346 55.2448 189.229 54.2357 189.111 52.9336L188.779 49.9062C188.714 49.457 188.604 49.0176 188.447 48.5879C188.226 48.002 187.985 47.709 187.725 47.709C187.484 47.709 187.035 47.9141 186.377 48.3242C185.752 48.7018 185.342 49.0046 185.146 49.2324C185.14 49.8444 185.156 50.4564 185.195 51.0684L185.488 53.6758C185.612 54.7044 185.674 55.554 185.674 56.2246C185.674 56.5111 185.583 56.7454 185.4 56.9277C185.225 57.1165 184.997 57.2109 184.717 57.2109C184.437 57.2109 184.206 57.1165 184.023 56.9277C183.848 56.7454 183.76 56.5111 183.76 56.2246C183.76 55.4368 183.678 54.2747 183.516 52.7383C183.359 51.1953 183.281 50.0299 183.281 49.2422C183.281 48.5521 183.184 48.015 182.988 47.6309C182.533 47.8392 182.07 48.1777 181.602 48.6465L180.449 49.9355C180.345 50.0918 180.179 50.2969 179.951 50.5508C179.951 50.9414 179.915 51.5176 179.844 52.2793C179.772 53.041 179.736 53.6042 179.736 53.9688C179.736 54.1641 179.766 54.4375 179.824 54.7891C179.889 55.1406 179.922 55.3945 179.922 55.5508C179.922 55.8177 179.821 56.0423 179.619 56.2246C179.424 56.4069 179.193 56.498 178.926 56.498C178.19 56.498 177.822 55.6615 177.822 53.9883C177.822 53.5977 177.858 53.015 177.93 52.2402C178.001 51.4655 178.037 50.8828 178.037 50.4922C178.037 50.1471 178.005 49.6296 177.939 48.9395C177.881 48.2493 177.852 47.7285 177.852 47.377C177.852 45.8991 178.184 45.1602 178.848 45.1602C179.102 45.1602 179.333 45.2708 179.541 45.4922C179.756 45.7135 179.863 45.9544 179.863 46.2148C179.863 46.3385 179.847 46.5306 179.814 46.791C179.782 47.0514 179.766 47.25 179.766 47.3867L179.785 48.4121C180.124 47.7155 180.622 47.0872 181.279 46.5273C181.937 45.9609 182.497 45.6777 182.959 45.6777C183.981 45.6777 184.684 46.1855 185.068 47.2012C185.426 46.7259 185.853 46.3711 186.348 46.1367C186.842 45.8958 187.409 45.7754 188.047 45.7754C189.134 45.7754 189.876 46.3613 190.273 47.5332C190.352 47.7676 190.485 48.6823 190.674 50.2773C190.856 51.3971 191.09 53.2624 191.377 55.873C191.396 56.1335 191.309 56.3548 191.113 56.5371C190.918 56.7194 190.68 56.8105 190.4 56.8105ZM211.211 47.2598C210.703 49.3822 210.039 51.7812 209.219 54.457C209.036 55.0495 208.734 55.6582 208.311 56.2832C208.083 56.6283 207.773 56.7975 207.383 56.791C206.673 56.778 206.12 55.8958 205.723 54.1445C205.592 53.5846 205.459 52.8229 205.322 51.8594L205 49.6816L204.199 51.5469L202.715 55.5801C202.63 55.8275 202.507 56.0163 202.344 56.1465C202.148 56.5241 201.836 56.7194 201.406 56.7324C200.911 56.752 200.433 55.7819 199.971 53.8223C199.736 52.8132 199.502 51.446 199.268 49.7207L199.033 48.2559C198.949 47.6699 198.906 47.1784 198.906 46.7812C198.906 46.5078 199.001 46.2832 199.189 46.1074C199.385 45.9251 199.619 45.834 199.893 45.834C200.387 45.834 200.693 46.1042 200.811 46.6445C200.895 47.0286 200.964 47.5039 201.016 48.0703L201.162 49.5059L201.738 53.8906C202.461 51.8854 203.21 49.5742 203.984 46.957C204.199 46.2344 204.574 45.873 205.107 45.873C205.622 45.873 205.97 46.2767 206.152 47.084C206.322 47.8457 206.533 49.0176 206.787 50.5996C207.048 52.2402 207.279 53.5195 207.48 54.4375L208.193 51.7812L209.453 46.459C209.551 46.0618 209.831 45.8633 210.293 45.8633C210.566 45.8633 210.804 45.9577 211.006 46.1465C211.208 46.3288 211.309 46.5501 211.309 46.8105C211.309 46.8431 211.276 46.9928 211.211 47.2598ZM215.078 43.6367C214.766 43.6367 214.495 43.526 214.268 43.3047C214.04 43.0833 213.926 42.8164 213.926 42.5039C213.926 42.1914 214.04 41.9245 214.268 41.7031C214.495 41.4818 214.766 41.3711 215.078 41.3711C215.391 41.3711 215.658 41.4818 215.879 41.7031C216.107 41.9245 216.221 42.1914 216.221 42.5039C216.221 42.8164 216.107 43.0833 215.879 43.3047C215.658 43.526 215.391 43.6367 215.078 43.6367ZM215.518 51.5664C215.518 51.957 215.527 52.543 215.547 53.3242C215.573 54.099 215.586 54.6816 215.586 55.0723C215.586 55.3587 215.498 55.5931 215.322 55.7754C215.146 55.9577 214.915 56.0488 214.629 56.0488C214.349 56.0488 214.118 55.9577 213.936 55.7754C213.76 55.5931 213.672 55.3587 213.672 55.0723C213.672 54.6816 213.659 54.099 213.633 53.3242C213.613 52.543 213.604 51.957 213.604 51.5664C213.604 50.9544 213.636 50.1927 213.701 49.2812C213.766 48.3633 213.799 47.5983 213.799 46.9863C213.799 46.6934 213.887 46.4557 214.062 46.2734C214.245 46.0911 214.476 46 214.756 46C215.036 46 215.264 46.0911 215.439 46.2734C215.622 46.4557 215.713 46.6934 215.713 46.9863C215.713 47.5983 215.68 48.3633 215.615 49.2812C215.55 50.1927 215.518 50.9544 215.518 51.5664ZM225.352 47.6797C225.215 47.6797 225.052 47.6732 224.863 47.6602C224.681 47.6471 224.521 47.6406 224.385 47.6406C224.235 47.6406 223.792 47.6895 223.057 47.7871L223.242 53.5586L223.252 53.9883L223.262 54.4863C223.288 55.9121 222.946 56.625 222.236 56.625C221.976 56.625 221.748 56.5404 221.553 56.3711C221.364 56.2018 221.27 55.9902 221.27 55.7363C221.27 55.4889 221.279 55.1178 221.299 54.623C221.318 54.1283 221.328 53.7572 221.328 53.5098L221.133 47.8066C220.658 47.7871 219.935 47.7318 218.965 47.6406C218.385 47.5625 218.096 47.2402 218.096 46.6738C218.096 46.3874 218.184 46.1497 218.359 45.9609C218.535 45.7721 218.76 45.6777 219.033 45.6777L221.084 45.8438C221.084 45.5117 221.068 45.069 221.035 44.5156C221.009 43.9557 220.996 43.5521 220.996 43.3047C220.996 43.0312 221.09 42.8066 221.279 42.6309C221.468 42.4486 221.699 42.3574 221.973 42.3574C222.559 42.3574 222.9 42.8359 222.998 43.793C223.018 44.0339 223.027 44.3236 223.027 44.6621L223.008 45.2285L222.998 45.834C223.805 45.7298 224.268 45.6777 224.385 45.6777C225.062 45.6777 225.505 45.7103 225.713 45.7754C226.11 45.9056 226.309 46.2116 226.309 46.6934C226.309 46.9798 226.217 47.2174 226.035 47.4062C225.859 47.5885 225.632 47.6797 225.352 47.6797ZM236.426 56.6055C235.964 56.6055 235.661 56.3581 235.518 55.8633C235.368 55.3294 235.231 54.571 235.107 53.5879C234.99 52.6439 234.932 51.8691 234.932 51.2637C234.932 51.0944 234.938 50.8372 234.951 50.4922C234.971 50.1471 234.98 49.89 234.98 49.7207C234.98 48.4967 234.674 47.8848 234.062 47.8848C233.236 47.8848 232.497 48.2591 231.846 49.0078C231.514 49.3919 231.058 50.1243 230.479 51.2051C230.479 53.6855 230.374 55.1536 230.166 55.6094C229.984 56.013 229.701 56.2148 229.316 56.2148C229.049 56.2148 228.815 56.1237 228.613 55.9414C228.411 55.7591 228.311 55.5378 228.311 55.2773C228.311 55.1862 228.34 55.043 228.398 54.8477C228.451 54.6849 228.486 54.2096 228.506 53.4219L228.535 51.9766L228.564 44.7988C228.61 43.9915 228.633 43.4479 228.633 43.168C228.633 42.8359 228.6 42.5234 228.535 42.2305C228.477 41.931 228.447 41.6217 228.447 41.3027C228.447 41.0293 228.542 40.8047 228.73 40.6289C228.919 40.4466 229.15 40.3555 229.424 40.3555C229.958 40.3555 230.27 40.6419 230.361 41.2148C230.465 41.8464 230.518 42.416 230.518 42.9238C230.518 43.6074 230.495 44.3203 230.449 45.0625C230.41 45.7721 230.394 46.485 230.4 47.2012L230.41 48.0605C230.944 47.3444 231.514 46.8105 232.119 46.459C232.731 46.1009 233.379 45.9219 234.062 45.9219C235.143 45.9219 235.885 46.2734 236.289 46.9766C236.576 47.4714 236.738 48.3047 236.777 49.4766L236.855 51.3418L237.051 53.373C237.142 54.1348 237.253 54.8053 237.383 55.3848C237.409 55.4954 237.422 55.5898 237.422 55.668C237.422 55.9349 237.324 56.1562 237.129 56.332C236.934 56.5143 236.699 56.6055 236.426 56.6055ZM252.354 42.2695C250.778 42.2695 249.896 43.3633 249.707 45.5508L249.678 46.1562C250.785 46.0781 251.501 46.0391 251.826 46.0391C252.861 46.0391 253.379 46.3646 253.379 47.0156C253.379 47.4909 253.125 47.7741 252.617 47.8652C252.396 47.9043 252.135 47.9206 251.836 47.9141C251.543 47.901 250.794 47.9434 249.59 48.041L249.512 50.2676C249.512 50.6712 249.525 51.2767 249.551 52.084C249.577 52.8913 249.59 53.4935 249.59 53.8906C249.59 55.1276 249.518 56.0911 249.375 56.7812C249.264 57.3021 248.962 57.5625 248.467 57.5625C248.2 57.5625 247.972 57.4746 247.783 57.2988C247.594 57.1296 247.5 56.9147 247.5 56.6543C247.5 56.6022 247.507 56.5371 247.52 56.459C247.656 55.6126 247.725 54.6914 247.725 53.6953L247.695 51.0293V48.1973C246.882 48.2624 246.367 48.2949 246.152 48.2949C245.495 48.2949 245.166 47.9792 245.166 47.3477C245.166 46.7031 245.736 46.3646 246.875 46.332L247.812 46.3027C247.832 45.9382 247.881 45.4434 247.959 44.8184C248.128 43.373 248.493 42.3086 249.053 41.625C249.73 40.7982 250.788 40.3848 252.227 40.3848C253.158 40.3848 253.623 40.7005 253.623 41.332C253.623 41.957 253.2 42.2695 252.354 42.2695ZM263.594 56.6445C263.47 56.6445 263.245 56.5013 262.92 56.2148C262.627 55.9479 262.409 55.7103 262.266 55.502C261.641 55.8405 261.09 56.0944 260.615 56.2637C260.14 56.4395 259.743 56.5273 259.424 56.5273C257.9 56.5273 256.79 56.0977 256.094 55.2383C255.436 54.431 255.107 53.194 255.107 51.5273C255.107 49.9518 255.648 48.6042 256.729 47.4844C257.816 46.3646 259.111 45.8047 260.615 45.8047C261.182 45.8047 261.816 45.9512 262.52 46.2441C263.405 46.6087 263.848 47.0482 263.848 47.5625C263.848 47.7383 263.783 47.8945 263.652 48.0312C263.587 48.2786 263.535 48.6855 263.496 49.252C263.464 49.8184 263.444 50.5443 263.438 51.4297C263.431 52.237 263.486 52.875 263.604 53.3438C263.669 53.6302 263.874 54.2031 264.219 55.0625C264.264 55.1797 264.339 55.3522 264.443 55.5801L264.502 55.7461C264.502 56.0065 264.411 56.2214 264.229 56.3906C264.046 56.5599 263.835 56.6445 263.594 56.6445ZM261.562 49.8574C261.562 49.5775 261.579 49.2747 261.611 48.9492C261.65 48.6172 261.706 48.2656 261.777 47.8945C261.536 47.7708 261.328 47.6797 261.152 47.6211C260.983 47.5625 260.846 47.5332 260.742 47.5332C259.733 47.5332 258.861 47.9466 258.125 48.7734C257.396 49.5938 257.031 50.541 257.031 51.6152C257.031 52.6829 257.22 53.4837 257.598 54.0176C257.975 54.5514 258.542 54.8184 259.297 54.8184C259.922 54.8184 260.452 54.7044 260.889 54.4766C261.123 54.3529 261.452 54.1055 261.875 53.7344C261.667 52.0091 261.562 50.7168 261.562 49.8574ZM273.799 48.7832C273.753 49.597 273.428 50.0039 272.822 50.0039C272.262 50.0039 271.982 49.6816 271.982 49.0371C271.982 48.9134 271.973 48.6855 271.953 48.3535L271.924 47.5332C270.895 47.6569 270.072 47.9466 269.453 48.4023C268.874 48.8255 268.392 49.4635 268.008 50.3164L268.027 55.668C268.027 56.3255 267.705 56.6543 267.061 56.6543C266.488 56.6543 266.201 56.3255 266.201 55.668V48.8125C266.201 48.5977 266.208 48.2754 266.221 47.8457C266.24 47.416 266.25 47.0938 266.25 46.8789C266.25 46.2214 266.536 45.8926 267.109 45.8926C267.747 45.8926 268.07 46.4329 268.076 47.5137C269.326 46.3092 270.713 45.707 272.236 45.707C272.764 45.707 273.158 45.9056 273.418 46.3027C273.678 46.6999 273.809 47.2988 273.809 48.0996C273.809 48.4382 273.805 48.666 273.799 48.7832ZM288.213 56.8105C287.679 56.8105 287.367 56.5273 287.275 55.9609C287.158 55.2448 287.041 54.2357 286.924 52.9336L286.592 49.9062C286.527 49.457 286.416 49.0176 286.26 48.5879C286.038 48.002 285.798 47.709 285.537 47.709C285.296 47.709 284.847 47.9141 284.189 48.3242C283.564 48.7018 283.154 49.0046 282.959 49.2324C282.952 49.8444 282.969 50.4564 283.008 51.0684L283.301 53.6758C283.424 54.7044 283.486 55.554 283.486 56.2246C283.486 56.5111 283.395 56.7454 283.213 56.9277C283.037 57.1165 282.809 57.2109 282.529 57.2109C282.249 57.2109 282.018 57.1165 281.836 56.9277C281.66 56.7454 281.572 56.5111 281.572 56.2246C281.572 55.4368 281.491 54.2747 281.328 52.7383C281.172 51.1953 281.094 50.0299 281.094 49.2422C281.094 48.5521 280.996 48.015 280.801 47.6309C280.345 47.8392 279.883 48.1777 279.414 48.6465L278.262 49.9355C278.158 50.0918 277.992 50.2969 277.764 50.5508C277.764 50.9414 277.728 51.5176 277.656 52.2793C277.585 53.041 277.549 53.6042 277.549 53.9688C277.549 54.1641 277.578 54.4375 277.637 54.7891C277.702 55.1406 277.734 55.3945 277.734 55.5508C277.734 55.8177 277.633 56.0423 277.432 56.2246C277.236 56.4069 277.005 56.498 276.738 56.498C276.003 56.498 275.635 55.6615 275.635 53.9883C275.635 53.5977 275.671 53.015 275.742 52.2402C275.814 51.4655 275.85 50.8828 275.85 50.4922C275.85 50.1471 275.817 49.6296 275.752 48.9395C275.693 48.2493 275.664 47.7285 275.664 47.377C275.664 45.8991 275.996 45.1602 276.66 45.1602C276.914 45.1602 277.145 45.2708 277.354 45.4922C277.568 45.7135 277.676 45.9544 277.676 46.2148C277.676 46.3385 277.66 46.5306 277.627 46.791C277.594 47.0514 277.578 47.25 277.578 47.3867L277.598 48.4121C277.936 47.7155 278.434 47.0872 279.092 46.5273C279.749 45.9609 280.309 45.6777 280.771 45.6777C281.794 45.6777 282.497 46.1855 282.881 47.2012C283.239 46.7259 283.665 46.3711 284.16 46.1367C284.655 45.8958 285.221 45.7754 285.859 45.7754C286.947 45.7754 287.689 46.3613 288.086 47.5332C288.164 47.7676 288.298 48.6823 288.486 50.2773C288.669 51.3971 288.903 53.2624 289.189 55.873C289.209 56.1335 289.121 56.3548 288.926 56.5371C288.73 56.7194 288.493 56.8105 288.213 56.8105ZM295.918 56.4492C294.447 56.4492 293.255 56.0814 292.344 55.3457C291.348 54.5319 290.85 53.3926 290.85 51.9277C290.85 50.235 291.26 48.8158 292.08 47.6699C292.972 46.4199 294.163 45.7949 295.654 45.7949C296.735 45.7949 297.617 45.9772 298.301 46.3418C299.141 46.791 299.561 47.4811 299.561 48.4121C299.561 49.0632 299.193 49.6556 298.457 50.1895C298.132 50.4238 297.441 50.7884 296.387 51.2832L292.656 53.0508C293.021 53.5911 293.473 53.998 294.014 54.2715C294.561 54.5449 295.195 54.6816 295.918 54.6816C296.367 54.6816 296.895 54.597 297.5 54.4277C298.268 54.2129 298.763 53.9329 298.984 53.5879C299.206 53.2363 299.443 53.0605 299.697 53.0605C299.925 53.0605 300.127 53.1484 300.303 53.3242C300.485 53.4935 300.576 53.6921 300.576 53.9199C300.576 54.6426 299.993 55.2643 298.828 55.7852C297.832 56.2279 296.862 56.4492 295.918 56.4492ZM295.654 47.5527C294.86 47.5527 294.199 47.862 293.672 48.4805C293.145 49.0924 292.751 50.0169 292.49 51.2539L295.488 49.8281C296.667 49.2552 297.507 48.7572 298.008 48.334C297.448 47.8132 296.663 47.5527 295.654 47.5527ZM311.309 47.377C311.23 48.334 311.191 49.291 311.191 50.248C311.191 52.416 311.292 54.0534 311.494 55.1602C311.507 55.2513 311.514 55.3262 311.514 55.3848C311.514 55.6452 311.423 55.86 311.24 56.0293C311.058 56.1986 310.846 56.2832 310.605 56.2832C310.202 56.2832 309.906 55.9902 309.717 55.4043C309.248 55.7493 308.76 56.0098 308.252 56.1855C307.751 56.3613 307.227 56.4492 306.68 56.4492C305.332 56.4492 304.215 56 303.33 55.1016C302.419 54.1836 301.963 53.0052 301.963 51.5664C301.963 49.8281 302.422 48.4349 303.34 47.3867C304.264 46.3385 305.462 45.8145 306.934 45.8145C307.689 45.8145 308.271 45.9316 308.682 46.166L309.6 46.8398C309.691 44.099 309.798 42.2533 309.922 41.3027C310.007 40.7233 310.303 40.4336 310.811 40.4336C311.403 40.4336 311.699 40.7493 311.699 41.3809C311.699 42.2858 311.569 44.2845 311.309 47.377ZM306.973 47.6309C305.879 47.6309 305.059 47.9564 304.512 48.6074C303.965 49.252 303.691 50.2253 303.691 51.5273C303.691 52.3672 303.988 53.0898 304.58 53.6953C305.179 54.3008 305.879 54.6035 306.68 54.6035C307.227 54.6035 307.689 54.5026 308.066 54.3008C308.288 54.1836 308.649 53.9134 309.15 53.4902C309.248 53.4056 309.342 53.3047 309.434 53.1875L309.404 51.498L309.414 50.3652L309.434 49.2129C309.186 48.6855 308.857 48.2917 308.447 48.0312C308.037 47.7643 307.546 47.6309 306.973 47.6309ZM332.451 56.8105C331.917 56.8105 331.605 56.5273 331.514 55.9609C331.396 55.2448 331.279 54.2357 331.162 52.9336L330.83 49.9062C330.765 49.457 330.654 49.0176 330.498 48.5879C330.277 48.002 330.036 47.709 329.775 47.709C329.535 47.709 329.085 47.9141 328.428 48.3242C327.803 48.7018 327.393 49.0046 327.197 49.2324C327.191 49.8444 327.207 50.4564 327.246 51.0684L327.539 53.6758C327.663 54.7044 327.725 55.554 327.725 56.2246C327.725 56.5111 327.633 56.7454 327.451 56.9277C327.275 57.1165 327.048 57.2109 326.768 57.2109C326.488 57.2109 326.257 57.1165 326.074 56.9277C325.898 56.7454 325.811 56.5111 325.811 56.2246C325.811 55.4368 325.729 54.2747 325.566 52.7383C325.41 51.1953 325.332 50.0299 325.332 49.2422C325.332 48.5521 325.234 48.015 325.039 47.6309C324.583 47.8392 324.121 48.1777 323.652 48.6465L322.5 49.9355C322.396 50.0918 322.23 50.2969 322.002 50.5508C322.002 50.9414 321.966 51.5176 321.895 52.2793C321.823 53.041 321.787 53.6042 321.787 53.9688C321.787 54.1641 321.816 54.4375 321.875 54.7891C321.94 55.1406 321.973 55.3945 321.973 55.5508C321.973 55.8177 321.872 56.0423 321.67 56.2246C321.475 56.4069 321.243 56.498 320.977 56.498C320.241 56.498 319.873 55.6615 319.873 53.9883C319.873 53.5977 319.909 53.015 319.98 52.2402C320.052 51.4655 320.088 50.8828 320.088 50.4922C320.088 50.1471 320.055 49.6296 319.99 48.9395C319.932 48.2493 319.902 47.7285 319.902 47.377C319.902 45.8991 320.234 45.1602 320.898 45.1602C321.152 45.1602 321.383 45.2708 321.592 45.4922C321.807 45.7135 321.914 45.9544 321.914 46.2148C321.914 46.3385 321.898 46.5306 321.865 46.791C321.833 47.0514 321.816 47.25 321.816 47.3867L321.836 48.4121C322.174 47.7155 322.673 47.0872 323.33 46.5273C323.988 45.9609 324.548 45.6777 325.01 45.6777C326.032 45.6777 326.735 46.1855 327.119 47.2012C327.477 46.7259 327.904 46.3711 328.398 46.1367C328.893 45.8958 329.46 45.7754 330.098 45.7754C331.185 45.7754 331.927 46.3613 332.324 47.5332C332.402 47.7676 332.536 48.6823 332.725 50.2773C332.907 51.3971 333.141 53.2624 333.428 55.873C333.447 56.1335 333.359 56.3548 333.164 56.5371C332.969 56.7194 332.731 56.8105 332.451 56.8105ZM340.156 56.4492C338.685 56.4492 337.493 56.0814 336.582 55.3457C335.586 54.5319 335.088 53.3926 335.088 51.9277C335.088 50.235 335.498 48.8158 336.318 47.6699C337.21 46.4199 338.402 45.7949 339.893 45.7949C340.973 45.7949 341.855 45.9772 342.539 46.3418C343.379 46.791 343.799 47.4811 343.799 48.4121C343.799 49.0632 343.431 49.6556 342.695 50.1895C342.37 50.4238 341.68 50.7884 340.625 51.2832L336.895 53.0508C337.259 53.5911 337.712 53.998 338.252 54.2715C338.799 54.5449 339.434 54.6816 340.156 54.6816C340.605 54.6816 341.133 54.597 341.738 54.4277C342.507 54.2129 343.001 53.9329 343.223 53.5879C343.444 53.2363 343.682 53.0605 343.936 53.0605C344.163 53.0605 344.365 53.1484 344.541 53.3242C344.723 53.4935 344.814 53.6921 344.814 53.9199C344.814 54.6426 344.232 55.2643 343.066 55.7852C342.07 56.2279 341.1 56.4492 340.156 56.4492ZM339.893 47.5527C339.098 47.5527 338.438 47.862 337.91 48.4805C337.383 49.0924 336.989 50.0169 336.729 51.2539L339.727 49.8281C340.905 49.2552 341.745 48.7572 342.246 48.334C341.686 47.8132 340.902 47.5527 339.893 47.5527ZM354.18 56.6445C354.056 56.6445 353.831 56.5013 353.506 56.2148C353.213 55.9479 352.995 55.7103 352.852 55.502C352.227 55.8405 351.676 56.0944 351.201 56.2637C350.726 56.4395 350.329 56.5273 350.01 56.5273C348.486 56.5273 347.376 56.0977 346.68 55.2383C346.022 54.431 345.693 53.194 345.693 51.5273C345.693 49.9518 346.234 48.6042 347.314 47.4844C348.402 46.3646 349.697 45.8047 351.201 45.8047C351.768 45.8047 352.402 45.9512 353.105 46.2441C353.991 46.6087 354.434 47.0482 354.434 47.5625C354.434 47.7383 354.368 47.8945 354.238 48.0312C354.173 48.2786 354.121 48.6855 354.082 49.252C354.049 49.8184 354.03 50.5443 354.023 51.4297C354.017 52.237 354.072 52.875 354.189 53.3438C354.255 53.6302 354.46 54.2031 354.805 55.0625C354.85 55.1797 354.925 55.3522 355.029 55.5801L355.088 55.7461C355.088 56.0065 354.997 56.2214 354.814 56.3906C354.632 56.5599 354.421 56.6445 354.18 56.6445ZM352.148 49.8574C352.148 49.5775 352.165 49.2747 352.197 48.9492C352.236 48.6172 352.292 48.2656 352.363 47.8945C352.122 47.7708 351.914 47.6797 351.738 47.6211C351.569 47.5625 351.432 47.5332 351.328 47.5332C350.319 47.5332 349.447 47.9466 348.711 48.7734C347.982 49.5938 347.617 50.541 347.617 51.6152C347.617 52.6829 347.806 53.4837 348.184 54.0176C348.561 54.5514 349.128 54.8184 349.883 54.8184C350.508 54.8184 351.038 54.7044 351.475 54.4766C351.709 54.3529 352.038 54.1055 352.461 53.7344C352.253 52.0091 352.148 50.7168 352.148 49.8574ZM363.32 47.6797C363.184 47.6797 363.021 47.6732 362.832 47.6602C362.65 47.6471 362.49 47.6406 362.354 47.6406C362.204 47.6406 361.761 47.6895 361.025 47.7871L361.211 53.5586L361.221 53.9883L361.23 54.4863C361.257 55.9121 360.915 56.625 360.205 56.625C359.945 56.625 359.717 56.5404 359.521 56.3711C359.333 56.2018 359.238 55.9902 359.238 55.7363C359.238 55.4889 359.248 55.1178 359.268 54.623C359.287 54.1283 359.297 53.7572 359.297 53.5098L359.102 47.8066C358.626 47.7871 357.904 47.7318 356.934 47.6406C356.354 47.5625 356.064 47.2402 356.064 46.6738C356.064 46.3874 356.152 46.1497 356.328 45.9609C356.504 45.7721 356.729 45.6777 357.002 45.6777L359.053 45.8438C359.053 45.5117 359.036 45.069 359.004 44.5156C358.978 43.9557 358.965 43.5521 358.965 43.3047C358.965 43.0312 359.059 42.8066 359.248 42.6309C359.437 42.4486 359.668 42.3574 359.941 42.3574C360.527 42.3574 360.869 42.8359 360.967 43.793C360.986 44.0339 360.996 44.3236 360.996 44.6621L360.977 45.2285L360.967 45.834C361.774 45.7298 362.236 45.6777 362.354 45.6777C363.031 45.6777 363.473 45.7103 363.682 45.7754C364.079 45.9056 364.277 46.2116 364.277 46.6934C364.277 46.9798 364.186 47.2174 364.004 47.4062C363.828 47.5885 363.6 47.6797 363.32 47.6797ZM372.812 48.4805C372.454 48.4805 372.204 48.36 372.061 48.1191C371.963 47.9499 371.878 47.5983 371.807 47.0645C371.318 47.1882 370.566 47.416 369.551 47.748C368.503 48.1647 367.975 48.679 367.969 49.291C368.164 49.3626 368.356 49.4147 368.545 49.4473C370.042 49.7142 371.156 50.082 371.885 50.5508C372.946 51.2344 373.477 52.224 373.477 53.5195C373.477 54.5807 373.018 55.3815 372.1 55.9219C371.338 56.3646 370.374 56.5859 369.209 56.5859C368.356 56.5859 367.542 56.4427 366.768 56.1562C365.765 55.7917 365.264 55.2839 365.264 54.6328C365.264 54.3724 365.365 54.1445 365.566 53.9492C365.775 53.7539 366.009 53.6562 366.27 53.6562C366.471 53.6562 366.732 53.8125 367.051 54.125C367.207 54.2747 367.559 54.3984 368.105 54.4961C368.542 54.5742 368.91 54.6133 369.209 54.6133C369.756 54.6133 370.238 54.5482 370.654 54.418C371.26 54.2292 371.562 53.9297 371.562 53.5195C371.562 52.6341 370.944 52.0352 369.707 51.7227L368.691 51.498C367.826 51.3092 367.21 51.0879 366.846 50.834C366.318 50.4694 366.055 49.9193 366.055 49.1836C366.055 47.8229 366.696 46.8529 367.979 46.2734C368.369 46.0977 368.994 45.8893 369.854 45.6484C370.713 45.401 371.328 45.1927 371.699 45.0234C371.966 44.9062 372.256 44.8477 372.568 44.8477C372.848 44.8477 373.076 44.9388 373.252 45.1211C373.434 45.3034 373.525 45.541 373.525 45.834C373.525 46.0228 373.564 46.2995 373.643 46.6641C373.727 47.0286 373.77 47.3053 373.77 47.4941C373.77 47.7871 373.678 48.0247 373.496 48.207C373.32 48.3893 373.092 48.4805 372.812 48.4805ZM186.758 73.043C186.341 73.043 186.029 72.7988 185.82 72.3105C185.638 71.8939 185.469 71.64 185.312 71.5488C185.176 71.4772 184.837 71.4414 184.297 71.4414C183.353 71.4414 182.305 72.1641 181.152 73.6094C179.59 75.5495 178.809 77.3887 178.809 79.127C178.809 79.9668 179.079 80.6895 179.619 81.2949C180.173 81.9199 180.84 82.2324 181.621 82.2324C182.292 82.2324 182.965 82.0599 183.643 81.7148C184.02 81.5195 184.6 81.1354 185.381 80.5625C185.752 80.2891 186.032 80.1523 186.221 80.1523C186.501 80.1523 186.735 80.2598 186.924 80.4746C187.113 80.6829 187.207 80.9173 187.207 81.1777C187.207 81.4707 187.083 81.7279 186.836 81.9492C185.117 83.4727 183.379 84.2344 181.621 84.2344C180.273 84.2344 179.134 83.7168 178.203 82.6816C177.305 81.679 176.855 80.4941 176.855 79.127C176.855 76.9199 177.78 74.6576 179.629 72.3398C181.172 70.4062 182.728 69.4395 184.297 69.4395C184.616 69.4395 184.902 69.4557 185.156 69.4883C185.41 69.5143 185.635 69.5599 185.83 69.625C186.058 69.293 186.354 69.127 186.719 69.127C187.168 69.127 187.451 69.4232 187.568 70.0156C187.673 70.543 187.725 71.1908 187.725 71.959C187.725 72.2259 187.653 72.4603 187.51 72.6621C187.334 72.916 187.083 73.043 186.758 73.043ZM191.865 76.3242L191.719 81.1777C191.719 81.6921 191.693 82.4473 191.641 83.4434C191.576 84.0944 191.257 84.4199 190.684 84.4199C190.046 84.4199 189.727 84.0879 189.727 83.4238C189.727 82.6361 189.762 81.4544 189.834 79.8789C189.906 78.2969 189.941 77.112 189.941 76.3242C189.941 75.2956 189.958 74.1204 189.99 72.7988C190.023 71.4707 190.039 70.2923 190.039 69.2637C190.039 68.6126 190.358 68.2871 190.996 68.2871C191.641 68.2871 191.963 68.6126 191.963 69.2637C191.963 70.2923 191.947 71.4707 191.914 72.7988C191.882 74.1204 191.865 75.2956 191.865 76.3242ZM196.738 71.6367C196.426 71.6367 196.156 71.526 195.928 71.3047C195.7 71.0833 195.586 70.8164 195.586 70.5039C195.586 70.1914 195.7 69.9245 195.928 69.7031C196.156 69.4818 196.426 69.3711 196.738 69.3711C197.051 69.3711 197.318 69.4818 197.539 69.7031C197.767 69.9245 197.881 70.1914 197.881 70.5039C197.881 70.8164 197.767 71.0833 197.539 71.3047C197.318 71.526 197.051 71.6367 196.738 71.6367ZM197.178 79.5664C197.178 79.957 197.188 80.543 197.207 81.3242C197.233 82.099 197.246 82.6816 197.246 83.0723C197.246 83.3587 197.158 83.5931 196.982 83.7754C196.807 83.9577 196.576 84.0488 196.289 84.0488C196.009 84.0488 195.778 83.9577 195.596 83.7754C195.42 83.5931 195.332 83.3587 195.332 83.0723C195.332 82.6816 195.319 82.099 195.293 81.3242C195.273 80.543 195.264 79.957 195.264 79.5664C195.264 78.9544 195.296 78.1927 195.361 77.2812C195.426 76.3633 195.459 75.5983 195.459 74.9863C195.459 74.6934 195.547 74.4557 195.723 74.2734C195.905 74.0911 196.136 74 196.416 74C196.696 74 196.924 74.0911 197.1 74.2734C197.282 74.4557 197.373 74.6934 197.373 74.9863C197.373 75.5983 197.34 76.3633 197.275 77.2812C197.21 78.1927 197.178 78.9544 197.178 79.5664ZM204.893 84.6152C203.558 84.6152 202.445 84.2116 201.553 83.4043C200.615 82.5579 200.146 81.4414 200.146 80.0547C200.146 78.7331 200.586 77.3691 201.465 75.9629C202.441 74.4004 203.542 73.6191 204.766 73.6191C205.404 73.6191 206.117 73.7689 206.904 74.0684C207.9 74.4525 208.398 74.9212 208.398 75.4746C208.398 75.722 208.317 75.9434 208.154 76.1387C207.992 76.3275 207.79 76.4219 207.549 76.4219C207.36 76.4219 207.194 76.3665 207.051 76.2559C206.914 76.1387 206.781 76.0247 206.65 75.9141C206.266 75.6081 205.638 75.4551 204.766 75.4551C204.102 75.4551 203.444 76.0475 202.793 77.2324C202.201 78.3197 201.904 79.2604 201.904 80.0547C201.904 80.9141 202.197 81.5911 202.783 82.0859C203.33 82.5482 204.033 82.7793 204.893 82.7793C205.283 82.7793 205.7 82.6751 206.143 82.4668L207.275 81.8613C207.471 81.7572 207.611 81.7051 207.695 81.7051C207.936 81.7051 208.145 81.8027 208.32 81.998C208.496 82.1868 208.584 82.4049 208.584 82.6523C208.584 83.1276 208.083 83.5866 207.08 84.0293C206.201 84.4199 205.472 84.6152 204.893 84.6152ZM218.887 84.4004C218.529 84.4004 218.252 84.2116 218.057 83.834C217.718 83.1764 217.207 82.3984 216.523 81.5L214.795 79.1465C214.417 79.446 213.831 79.8659 213.037 80.4062C212.965 81.4154 212.93 82.3984 212.93 83.3555C212.93 83.6484 212.839 83.8861 212.656 84.0684C212.48 84.2507 212.253 84.3418 211.973 84.3418C211.315 84.3418 210.986 83.8991 210.986 83.0137C210.986 82.4733 211.022 81.666 211.094 80.5918C211.172 79.5111 211.211 78.7005 211.211 78.1602C211.211 77.1706 211.224 76.041 211.25 74.7715C211.283 73.4954 211.299 72.3691 211.299 71.3926C211.299 71.0996 211.283 70.7546 211.25 70.3574C211.224 69.9603 211.211 69.6152 211.211 69.3223C211.211 69.0293 211.299 68.7917 211.475 68.6094C211.657 68.4271 211.888 68.3359 212.168 68.3359C212.448 68.3359 212.676 68.4271 212.852 68.6094C213.034 68.7917 213.125 69.0293 213.125 69.3223C213.125 69.6217 213.141 69.9766 213.174 70.3867C213.206 70.7904 213.223 71.1419 213.223 71.4414L213.154 74.5859C213.122 75.7188 213.112 76.8516 213.125 77.9844C214.01 77.3073 214.863 76.5651 215.684 75.7578L217.832 73.541C218.047 73.3197 218.278 73.209 218.525 73.209C218.779 73.209 219.007 73.3099 219.209 73.5117C219.417 73.7135 219.521 73.9479 219.521 74.2148C219.521 74.4362 219.427 74.6543 219.238 74.8691C218.438 75.8066 217.451 76.8125 216.279 77.8867L218.408 80.7871C219.404 82.1478 219.902 83.0332 219.902 83.4434C219.902 83.7038 219.798 83.9284 219.59 84.1172C219.388 84.306 219.154 84.4004 218.887 84.4004ZM235.703 84.6055C235.241 84.6055 234.938 84.3581 234.795 83.8633C234.645 83.3294 234.508 82.571 234.385 81.5879C234.268 80.6439 234.209 79.8691 234.209 79.2637C234.209 79.0944 234.215 78.8372 234.229 78.4922C234.248 78.1471 234.258 77.89 234.258 77.7207C234.258 76.4967 233.952 75.8848 233.34 75.8848C232.513 75.8848 231.774 76.2591 231.123 77.0078C230.791 77.3919 230.335 78.1243 229.756 79.2051C229.756 81.6855 229.652 83.1536 229.443 83.6094C229.261 84.013 228.978 84.2148 228.594 84.2148C228.327 84.2148 228.092 84.1237 227.891 83.9414C227.689 83.7591 227.588 83.5378 227.588 83.2773C227.588 83.1862 227.617 83.043 227.676 82.8477C227.728 82.6849 227.764 82.2096 227.783 81.4219L227.812 79.9766L227.842 72.7988C227.887 71.9915 227.91 71.4479 227.91 71.168C227.91 70.8359 227.878 70.5234 227.812 70.2305C227.754 69.931 227.725 69.6217 227.725 69.3027C227.725 69.0293 227.819 68.8047 228.008 68.6289C228.197 68.4466 228.428 68.3555 228.701 68.3555C229.235 68.3555 229.548 68.6419 229.639 69.2148C229.743 69.8464 229.795 70.416 229.795 70.9238C229.795 71.6074 229.772 72.3203 229.727 73.0625C229.688 73.7721 229.671 74.485 229.678 75.2012L229.688 76.0605C230.221 75.3444 230.791 74.8105 231.396 74.459C232.008 74.1009 232.656 73.9219 233.34 73.9219C234.421 73.9219 235.163 74.2734 235.566 74.9766C235.853 75.4714 236.016 76.3047 236.055 77.4766L236.133 79.3418L236.328 81.373C236.419 82.1348 236.53 82.8053 236.66 83.3848C236.686 83.4954 236.699 83.5898 236.699 83.668C236.699 83.9349 236.602 84.1562 236.406 84.332C236.211 84.5143 235.977 84.6055 235.703 84.6055ZM243.652 84.4492C242.181 84.4492 240.99 84.0814 240.078 83.3457C239.082 82.5319 238.584 81.3926 238.584 79.9277C238.584 78.235 238.994 76.8158 239.814 75.6699C240.706 74.4199 241.898 73.7949 243.389 73.7949C244.469 73.7949 245.352 73.9772 246.035 74.3418C246.875 74.791 247.295 75.4811 247.295 76.4121C247.295 77.0632 246.927 77.6556 246.191 78.1895C245.866 78.4238 245.176 78.7884 244.121 79.2832L240.391 81.0508C240.755 81.5911 241.208 81.998 241.748 82.2715C242.295 82.5449 242.93 82.6816 243.652 82.6816C244.102 82.6816 244.629 82.597 245.234 82.4277C246.003 82.2129 246.497 81.9329 246.719 81.5879C246.94 81.2363 247.178 81.0605 247.432 81.0605C247.66 81.0605 247.861 81.1484 248.037 81.3242C248.219 81.4935 248.311 81.6921 248.311 81.9199C248.311 82.6426 247.728 83.2643 246.562 83.7852C245.566 84.2279 244.596 84.4492 243.652 84.4492ZM243.389 75.5527C242.594 75.5527 241.934 75.862 241.406 76.4805C240.879 77.0924 240.485 78.0169 240.225 79.2539L243.223 77.8281C244.401 77.2552 245.241 76.7572 245.742 76.334C245.182 75.8132 244.398 75.5527 243.389 75.5527ZM257.646 76.7832C257.601 77.597 257.275 78.0039 256.67 78.0039C256.11 78.0039 255.83 77.6816 255.83 77.0371C255.83 76.9134 255.82 76.6855 255.801 76.3535L255.771 75.5332C254.743 75.6569 253.919 75.9466 253.301 76.4023C252.721 76.8255 252.24 77.4635 251.855 78.3164L251.875 83.668C251.875 84.3255 251.553 84.6543 250.908 84.6543C250.335 84.6543 250.049 84.3255 250.049 83.668V76.8125C250.049 76.5977 250.055 76.2754 250.068 75.8457C250.088 75.416 250.098 75.0938 250.098 74.8789C250.098 74.2214 250.384 73.8926 250.957 73.8926C251.595 73.8926 251.917 74.4329 251.924 75.5137C253.174 74.3092 254.561 73.707 256.084 73.707C256.611 73.707 257.005 73.9056 257.266 74.3027C257.526 74.6999 257.656 75.2988 257.656 76.0996C257.656 76.4382 257.653 76.666 257.646 76.7832ZM264.219 84.4492C262.747 84.4492 261.556 84.0814 260.645 83.3457C259.648 82.5319 259.15 81.3926 259.15 79.9277C259.15 78.235 259.561 76.8158 260.381 75.6699C261.273 74.4199 262.464 73.7949 263.955 73.7949C265.036 73.7949 265.918 73.9772 266.602 74.3418C267.441 74.791 267.861 75.4811 267.861 76.4121C267.861 77.0632 267.493 77.6556 266.758 78.1895C266.432 78.4238 265.742 78.7884 264.688 79.2832L260.957 81.0508C261.322 81.5911 261.774 81.998 262.314 82.2715C262.861 82.5449 263.496 82.6816 264.219 82.6816C264.668 82.6816 265.195 82.597 265.801 82.4277C266.569 82.2129 267.064 81.9329 267.285 81.5879C267.507 81.2363 267.744 81.0605 267.998 81.0605C268.226 81.0605 268.428 81.1484 268.604 81.3242C268.786 81.4935 268.877 81.6921 268.877 81.9199C268.877 82.6426 268.294 83.2643 267.129 83.7852C266.133 84.2279 265.163 84.4492 264.219 84.4492ZM263.955 75.5527C263.161 75.5527 262.5 75.862 261.973 76.4805C261.445 77.0924 261.051 78.0169 260.791 79.2539L263.789 77.8281C264.967 77.2552 265.807 76.7572 266.309 76.334C265.749 75.8132 264.964 75.5527 263.955 75.5527ZM272.49 69.1953V80.0645C272.49 80.6439 272.201 80.9336 271.621 80.9336C271.042 80.9336 270.752 80.6439 270.752 80.0645C270.752 79.7975 270.742 79.4004 270.723 78.873C270.71 78.3392 270.703 77.9421 270.703 77.6816C270.703 76.7376 270.71 75.3249 270.723 73.4434C270.742 71.5553 270.752 70.1393 270.752 69.1953C270.752 68.6159 271.042 68.3262 271.621 68.3262C272.201 68.3262 272.49 68.6159 272.49 69.1953ZM272.5 83.7754C272.5 84.0098 272.406 84.2116 272.217 84.3809C272.035 84.5566 271.826 84.6445 271.592 84.6445C271.331 84.6445 271.071 84.4753 270.811 84.1367C270.557 83.8177 270.43 83.5247 270.43 83.2578C270.43 83.0234 270.521 82.8216 270.703 82.6523C270.892 82.4831 271.107 82.3984 271.348 82.3984C271.602 82.3984 271.862 82.5677 272.129 82.9062C272.376 83.2253 272.5 83.515 272.5 83.7754Z" fill="black"/>
</g>
<g id="solution">
<rect id="Rectangle 93_2" x="475" y="22" width="402" height="80" fill="#44D61F" stroke="black" stroke-width="2"/>
<path id="A possible solution in the works Click here!" d="M541.322 56.293C540.723 56.293 540.202 55.5247 539.76 53.9883C539.59 53.4023 539.379 52.377 539.125 50.9121C538.461 51.0033 537.592 51.166 536.518 51.4004L533.92 51.9375C533.594 52.7904 533.038 54.0371 532.25 55.6777C532.042 56.0423 531.758 56.2246 531.4 56.2246C531.14 56.2246 530.906 56.1302 530.697 55.9414C530.495 55.7526 530.395 55.5182 530.395 55.2383C530.395 54.9258 530.886 53.7376 531.869 51.6738C531.758 51.5046 531.703 51.3092 531.703 51.0879C531.703 50.5605 532.022 50.222 532.66 50.0723C533.402 48.679 534.34 47.0775 535.473 45.2676C537.016 42.8001 537.976 41.5664 538.354 41.5664C538.868 41.5664 539.219 41.9245 539.408 42.6406L540.023 45.9219L541.479 52.709L542.035 54.252C542.224 54.7793 542.318 55.1309 542.318 55.3066C542.318 55.5866 542.217 55.821 542.016 56.0098C541.814 56.1986 541.583 56.293 541.322 56.293ZM537.875 45.1309L535.082 49.6328C535.87 49.431 537.064 49.1868 538.666 48.9004L537.875 45.1309ZM555.229 56.3418C554.577 56.3418 553.861 56.2376 553.08 56.0293L553.061 60.6973C553.061 60.9837 552.969 61.2181 552.787 61.4004C552.611 61.5827 552.383 61.6738 552.104 61.6738C551.824 61.6738 551.592 61.5827 551.41 61.4004C551.234 61.2181 551.146 60.9837 551.146 60.6973L551.176 56.791V52.8945C551.156 51.4688 551.107 50.1699 551.029 48.998L550.883 47.0156C550.883 46.5534 550.967 46.1628 551.137 45.8438C551.332 45.4596 551.615 45.2676 551.986 45.2676C552.24 45.2676 552.452 45.3587 552.621 45.541C552.797 45.7168 552.885 45.9349 552.885 46.1953C552.885 46.2539 552.875 46.3613 552.855 46.5176C552.823 46.7194 552.8 46.9049 552.787 47.0742C553.347 46.6901 553.887 46.4036 554.408 46.2148C554.929 46.0195 555.427 45.9219 555.902 45.9219C557.237 45.9219 558.214 46.5143 558.832 47.6992C559.32 48.6367 559.564 49.877 559.564 51.4199C559.564 52.8262 559.187 53.985 558.432 54.8965C557.631 55.86 556.563 56.3418 555.229 56.3418ZM555.902 47.875C555.303 47.875 554.763 48.0085 554.281 48.2754C553.936 48.4642 553.5 48.8092 552.973 49.3105C553.057 50.7884 553.1 52.3411 553.1 53.9688C553.809 54.2422 554.519 54.3789 555.229 54.3789C556.042 54.3789 556.664 54.0762 557.094 53.4707C557.465 52.9434 557.65 52.2598 557.65 51.4199C557.65 50.235 557.504 49.3496 557.211 48.7637C556.924 48.1712 556.488 47.875 555.902 47.875ZM565.443 56.5762C564.35 56.5762 563.409 56.1725 562.621 55.3652C561.742 54.4668 561.28 53.2591 561.234 51.7422C561.195 50.2708 561.566 48.9753 562.348 47.8555C563.259 46.5339 564.529 45.873 566.156 45.873C567.458 45.873 568.445 46.4688 569.115 47.6602C569.649 48.6237 569.906 49.7826 569.887 51.1367C569.867 52.582 569.49 53.8158 568.754 54.8379C567.921 55.9967 566.817 56.5762 565.443 56.5762ZM566.029 47.8555C565.072 47.849 564.327 48.3047 563.793 49.2227C563.37 49.9583 563.158 50.7982 563.158 51.7422C563.158 52.6862 563.415 53.4219 563.93 53.9492C564.359 54.3854 564.864 54.6035 565.443 54.6035C566.12 54.6035 566.703 54.3561 567.191 53.8613C567.745 53.3145 568.038 52.5755 568.07 51.6445C568.161 49.125 567.481 47.862 566.029 47.8555ZM578.9 48.4805C578.542 48.4805 578.292 48.36 578.148 48.1191C578.051 47.9499 577.966 47.5983 577.895 47.0645C577.406 47.1882 576.654 47.416 575.639 47.748C574.59 48.1647 574.063 48.679 574.057 49.291C574.252 49.3626 574.444 49.4147 574.633 49.4473C576.13 49.7142 577.243 50.082 577.973 50.5508C579.034 51.2344 579.564 52.224 579.564 53.5195C579.564 54.5807 579.105 55.3815 578.188 55.9219C577.426 56.3646 576.462 56.5859 575.297 56.5859C574.444 56.5859 573.63 56.4427 572.855 56.1562C571.853 55.7917 571.352 55.2839 571.352 54.6328C571.352 54.3724 571.452 54.1445 571.654 53.9492C571.863 53.7539 572.097 53.6562 572.357 53.6562C572.559 53.6562 572.82 53.8125 573.139 54.125C573.295 54.2747 573.646 54.3984 574.193 54.4961C574.63 54.5742 574.997 54.6133 575.297 54.6133C575.844 54.6133 576.326 54.5482 576.742 54.418C577.348 54.2292 577.65 53.9297 577.65 53.5195C577.65 52.6341 577.032 52.0352 575.795 51.7227L574.779 51.498C573.913 51.3092 573.298 51.0879 572.934 50.834C572.406 50.4694 572.143 49.9193 572.143 49.1836C572.143 47.8229 572.784 46.8529 574.066 46.2734C574.457 46.0977 575.082 45.8893 575.941 45.6484C576.801 45.401 577.416 45.1927 577.787 45.0234C578.054 44.9062 578.344 44.8477 578.656 44.8477C578.936 44.8477 579.164 44.9388 579.34 45.1211C579.522 45.3034 579.613 45.541 579.613 45.834C579.613 46.0228 579.652 46.2995 579.73 46.6641C579.815 47.0286 579.857 47.3053 579.857 47.4941C579.857 47.7871 579.766 48.0247 579.584 48.207C579.408 48.3893 579.18 48.4805 578.9 48.4805ZM588.646 48.4805C588.288 48.4805 588.038 48.36 587.895 48.1191C587.797 47.9499 587.712 47.5983 587.641 47.0645C587.152 47.1882 586.4 47.416 585.385 47.748C584.337 48.1647 583.809 48.679 583.803 49.291C583.998 49.3626 584.19 49.4147 584.379 49.4473C585.876 49.7142 586.99 50.082 587.719 50.5508C588.78 51.2344 589.311 52.224 589.311 53.5195C589.311 54.5807 588.852 55.3815 587.934 55.9219C587.172 56.3646 586.208 56.5859 585.043 56.5859C584.19 56.5859 583.376 56.4427 582.602 56.1562C581.599 55.7917 581.098 55.2839 581.098 54.6328C581.098 54.3724 581.199 54.1445 581.4 53.9492C581.609 53.7539 581.843 53.6562 582.104 53.6562C582.305 53.6562 582.566 53.8125 582.885 54.125C583.041 54.2747 583.393 54.3984 583.939 54.4961C584.376 54.5742 584.743 54.6133 585.043 54.6133C585.59 54.6133 586.072 54.5482 586.488 54.418C587.094 54.2292 587.396 53.9297 587.396 53.5195C587.396 52.6341 586.778 52.0352 585.541 51.7227L584.525 51.498C583.66 51.3092 583.044 51.0879 582.68 50.834C582.152 50.4694 581.889 49.9193 581.889 49.1836C581.889 47.8229 582.53 46.8529 583.812 46.2734C584.203 46.0977 584.828 45.8893 585.688 45.6484C586.547 45.401 587.162 45.1927 587.533 45.0234C587.8 44.9062 588.09 44.8477 588.402 44.8477C588.682 44.8477 588.91 44.9388 589.086 45.1211C589.268 45.3034 589.359 45.541 589.359 45.834C589.359 46.0228 589.398 46.2995 589.477 46.6641C589.561 47.0286 589.604 47.3053 589.604 47.4941C589.604 47.7871 589.512 48.0247 589.33 48.207C589.154 48.3893 588.926 48.4805 588.646 48.4805ZM593.666 43.6367C593.354 43.6367 593.083 43.526 592.855 43.3047C592.628 43.0833 592.514 42.8164 592.514 42.5039C592.514 42.1914 592.628 41.9245 592.855 41.7031C593.083 41.4818 593.354 41.3711 593.666 41.3711C593.979 41.3711 594.245 41.4818 594.467 41.7031C594.695 41.9245 594.809 42.1914 594.809 42.5039C594.809 42.8164 594.695 43.0833 594.467 43.3047C594.245 43.526 593.979 43.6367 593.666 43.6367ZM594.105 51.5664C594.105 51.957 594.115 52.543 594.135 53.3242C594.161 54.099 594.174 54.6816 594.174 55.0723C594.174 55.3587 594.086 55.5931 593.91 55.7754C593.734 55.9577 593.503 56.0488 593.217 56.0488C592.937 56.0488 592.706 55.9577 592.523 55.7754C592.348 55.5931 592.26 55.3587 592.26 55.0723C592.26 54.6816 592.247 54.099 592.221 53.3242C592.201 52.543 592.191 51.957 592.191 51.5664C592.191 50.9544 592.224 50.1927 592.289 49.2812C592.354 48.3633 592.387 47.5983 592.387 46.9863C592.387 46.6934 592.475 46.4557 592.65 46.2734C592.833 46.0911 593.064 46 593.344 46C593.624 46 593.852 46.0911 594.027 46.2734C594.21 46.4557 594.301 46.6934 594.301 46.9863C594.301 47.5983 594.268 48.3633 594.203 49.2812C594.138 50.1927 594.105 50.9544 594.105 51.5664ZM601.967 56.4102C600.971 56.4102 600.066 56.2148 599.252 55.8242C599.044 56.1367 598.79 56.293 598.49 56.293C598.243 56.293 598.031 56.2051 597.855 56.0293C597.686 55.86 597.602 55.6452 597.602 55.3848C597.602 55.2155 597.608 54.9648 597.621 54.6328C597.641 54.3008 597.65 54.0501 597.65 53.8809C597.65 53.1908 597.631 52.1589 597.592 50.7852C597.559 49.4049 597.543 48.3698 597.543 47.6797C597.543 47.2044 597.546 46.306 597.553 44.9844C597.559 43.6562 597.562 42.7513 597.562 42.2695C597.562 41.8789 597.644 41.5273 597.807 41.2148C598.021 40.8177 598.318 40.6191 598.695 40.6191C599.184 40.6191 599.428 40.9023 599.428 41.4688C599.428 41.5599 599.411 41.6934 599.379 41.8691C599.346 42.0449 599.33 42.1784 599.33 42.2695L599.301 44.4082L599.281 46.8984C599.848 46.5143 600.385 46.2279 600.893 46.0391C601.407 45.8438 601.889 45.7461 602.338 45.7461C603.738 45.7461 604.874 46.2832 605.746 47.3574C606.566 48.3665 606.977 49.6068 606.977 51.0781C606.977 52.5625 606.498 53.8223 605.541 54.8574C604.584 55.8926 603.393 56.4102 601.967 56.4102ZM602.338 47.5918C601.804 47.5918 601.257 47.7415 600.697 48.041C600.424 48.1908 599.955 48.513 599.291 49.0078L599.271 50.6973L599.281 52.2207L599.291 53.8223C599.604 53.9655 600.043 54.1478 600.609 54.3691C601.013 54.4928 601.465 54.5547 601.967 54.5547C602.911 54.5547 603.686 54.2227 604.291 53.5586C604.896 52.8945 605.199 52.0677 605.199 51.0781C605.199 50.1081 604.955 49.2975 604.467 48.6465C603.939 47.9434 603.23 47.5918 602.338 47.5918ZM611.762 48.3242L611.615 53.1777C611.615 53.6921 611.589 54.4473 611.537 55.4434C611.472 56.0944 611.153 56.4199 610.58 56.4199C609.942 56.4199 609.623 56.0879 609.623 55.4238C609.623 54.6361 609.659 53.4544 609.73 51.8789C609.802 50.2969 609.838 49.112 609.838 48.3242C609.838 47.2956 609.854 46.1204 609.887 44.7988C609.919 43.4707 609.936 42.2923 609.936 41.2637C609.936 40.6126 610.255 40.2871 610.893 40.2871C611.537 40.2871 611.859 40.6126 611.859 41.2637C611.859 42.2923 611.843 43.4707 611.811 44.7988C611.778 46.1204 611.762 47.2956 611.762 48.3242ZM619.33 56.4492C617.859 56.4492 616.667 56.0814 615.756 55.3457C614.76 54.5319 614.262 53.3926 614.262 51.9277C614.262 50.235 614.672 48.8158 615.492 47.6699C616.384 46.4199 617.576 45.7949 619.066 45.7949C620.147 45.7949 621.029 45.9772 621.713 46.3418C622.553 46.791 622.973 47.4811 622.973 48.4121C622.973 49.0632 622.605 49.6556 621.869 50.1895C621.544 50.4238 620.854 50.7884 619.799 51.2832L616.068 53.0508C616.433 53.5911 616.885 53.998 617.426 54.2715C617.973 54.5449 618.607 54.6816 619.33 54.6816C619.779 54.6816 620.307 54.597 620.912 54.4277C621.68 54.2129 622.175 53.9329 622.396 53.5879C622.618 53.2363 622.855 53.0605 623.109 53.0605C623.337 53.0605 623.539 53.1484 623.715 53.3242C623.897 53.4935 623.988 53.6921 623.988 53.9199C623.988 54.6426 623.406 55.2643 622.24 55.7852C621.244 56.2279 620.274 56.4492 619.33 56.4492ZM619.066 47.5527C618.272 47.5527 617.611 47.862 617.084 48.4805C616.557 49.0924 616.163 50.0169 615.902 51.2539L618.9 49.8281C620.079 49.2552 620.919 48.7572 621.42 48.334C620.86 47.8132 620.076 47.5527 619.066 47.5527ZM638.295 48.4805C637.937 48.4805 637.686 48.36 637.543 48.1191C637.445 47.9499 637.361 47.5983 637.289 47.0645C636.801 47.1882 636.049 47.416 635.033 47.748C633.985 48.1647 633.458 48.679 633.451 49.291C633.646 49.3626 633.839 49.4147 634.027 49.4473C635.525 49.7142 636.638 50.082 637.367 50.5508C638.428 51.2344 638.959 52.224 638.959 53.5195C638.959 54.5807 638.5 55.3815 637.582 55.9219C636.82 56.3646 635.857 56.5859 634.691 56.5859C633.839 56.5859 633.025 56.4427 632.25 56.1562C631.247 55.7917 630.746 55.2839 630.746 54.6328C630.746 54.3724 630.847 54.1445 631.049 53.9492C631.257 53.7539 631.492 53.6562 631.752 53.6562C631.954 53.6562 632.214 53.8125 632.533 54.125C632.689 54.2747 633.041 54.3984 633.588 54.4961C634.024 54.5742 634.392 54.6133 634.691 54.6133C635.238 54.6133 635.72 54.5482 636.137 54.418C636.742 54.2292 637.045 53.9297 637.045 53.5195C637.045 52.6341 636.426 52.0352 635.189 51.7227L634.174 51.498C633.308 51.3092 632.693 51.0879 632.328 50.834C631.801 50.4694 631.537 49.9193 631.537 49.1836C631.537 47.8229 632.178 46.8529 633.461 46.2734C633.852 46.0977 634.477 45.8893 635.336 45.6484C636.195 45.401 636.811 45.1927 637.182 45.0234C637.449 44.9062 637.738 44.8477 638.051 44.8477C638.331 44.8477 638.559 44.9388 638.734 45.1211C638.917 45.3034 639.008 45.541 639.008 45.834C639.008 46.0228 639.047 46.2995 639.125 46.6641C639.21 47.0286 639.252 47.3053 639.252 47.4941C639.252 47.7871 639.161 48.0247 638.979 48.207C638.803 48.3893 638.575 48.4805 638.295 48.4805ZM645.111 56.5762C644.018 56.5762 643.077 56.1725 642.289 55.3652C641.41 54.4668 640.948 53.2591 640.902 51.7422C640.863 50.2708 641.234 48.9753 642.016 47.8555C642.927 46.5339 644.197 45.873 645.824 45.873C647.126 45.873 648.113 46.4688 648.783 47.6602C649.317 48.6237 649.574 49.7826 649.555 51.1367C649.535 52.582 649.158 53.8158 648.422 54.8379C647.589 55.9967 646.485 56.5762 645.111 56.5762ZM645.697 47.8555C644.74 47.849 643.995 48.3047 643.461 49.2227C643.038 49.9583 642.826 50.7982 642.826 51.7422C642.826 52.6862 643.083 53.4219 643.598 53.9492C644.027 54.3854 644.532 54.6035 645.111 54.6035C645.788 54.6035 646.371 54.3561 646.859 53.8613C647.413 53.3145 647.706 52.5755 647.738 51.6445C647.829 49.125 647.149 47.862 645.697 47.8555ZM654.457 48.3242L654.311 53.1777C654.311 53.6921 654.285 54.4473 654.232 55.4434C654.167 56.0944 653.848 56.4199 653.275 56.4199C652.637 56.4199 652.318 56.0879 652.318 55.4238C652.318 54.6361 652.354 53.4544 652.426 51.8789C652.497 50.2969 652.533 49.112 652.533 48.3242C652.533 47.2956 652.549 46.1204 652.582 44.7988C652.615 43.4707 652.631 42.2923 652.631 41.2637C652.631 40.6126 652.95 40.2871 653.588 40.2871C654.232 40.2871 654.555 40.6126 654.555 41.2637C654.555 42.2923 654.538 43.4707 654.506 44.7988C654.473 46.1204 654.457 47.2956 654.457 48.3242ZM665.434 50.2969C665.434 50.7656 665.437 51.4688 665.443 52.4062C665.45 53.3438 665.453 54.0469 665.453 54.5156C665.453 54.6589 665.463 54.877 665.482 55.1699C665.508 55.4629 665.521 55.681 665.521 55.8242C665.521 56.1042 665.427 56.332 665.238 56.5078C665.049 56.6901 664.818 56.7812 664.545 56.7812C664.044 56.7812 663.725 56.472 663.588 55.8535C662.774 56.2767 661.837 56.4883 660.775 56.4883C659.923 56.4883 659.216 56.2995 658.656 55.9219C658.038 55.5052 657.67 54.8965 657.553 54.0957C657.299 52.3704 657.172 50.834 657.172 49.4863C657.172 48.5944 657.27 47.5788 657.465 46.4395C657.556 45.873 657.865 45.5898 658.393 45.5898C658.673 45.5898 658.907 45.681 659.096 45.8633C659.285 46.0391 659.379 46.2669 659.379 46.5469C659.379 46.8464 659.33 47.3249 659.232 47.9824C659.141 48.64 659.096 49.1413 659.096 49.4863C659.096 50.5736 659.132 51.5046 659.203 52.2793C659.275 53.054 659.382 53.6758 659.525 54.1445C659.74 54.2617 659.952 54.3529 660.16 54.418C660.368 54.4766 660.574 54.5059 660.775 54.5059C661.648 54.5059 662.569 54.3659 663.539 54.0859L663.529 52.1035L663.51 50.209C663.51 48.8027 663.572 47.582 663.695 46.5469C663.767 45.9479 664.083 45.6484 664.643 45.6484C664.923 45.6484 665.157 45.7396 665.346 45.9219C665.535 46.1042 665.622 46.332 665.609 46.6055L665.434 50.2969ZM674.408 47.6797C674.271 47.6797 674.109 47.6732 673.92 47.6602C673.738 47.6471 673.578 47.6406 673.441 47.6406C673.292 47.6406 672.849 47.6895 672.113 47.7871L672.299 53.5586L672.309 53.9883L672.318 54.4863C672.344 55.9121 672.003 56.625 671.293 56.625C671.033 56.625 670.805 56.5404 670.609 56.3711C670.421 56.2018 670.326 55.9902 670.326 55.7363C670.326 55.4889 670.336 55.1178 670.355 54.623C670.375 54.1283 670.385 53.7572 670.385 53.5098L670.189 47.8066C669.714 47.7871 668.992 47.7318 668.021 47.6406C667.442 47.5625 667.152 47.2402 667.152 46.6738C667.152 46.3874 667.24 46.1497 667.416 45.9609C667.592 45.7721 667.816 45.6777 668.09 45.6777L670.141 45.8438C670.141 45.5117 670.124 45.069 670.092 44.5156C670.066 43.9557 670.053 43.5521 670.053 43.3047C670.053 43.0312 670.147 42.8066 670.336 42.6309C670.525 42.4486 670.756 42.3574 671.029 42.3574C671.615 42.3574 671.957 42.8359 672.055 43.793C672.074 44.0339 672.084 44.3236 672.084 44.6621L672.064 45.2285L672.055 45.834C672.862 45.7298 673.324 45.6777 673.441 45.6777C674.118 45.6777 674.561 45.7103 674.77 45.7754C675.167 45.9056 675.365 46.2116 675.365 46.6934C675.365 46.9798 675.274 47.2174 675.092 47.4062C674.916 47.5885 674.688 47.6797 674.408 47.6797ZM679.174 43.6367C678.861 43.6367 678.591 43.526 678.363 43.3047C678.135 43.0833 678.021 42.8164 678.021 42.5039C678.021 42.1914 678.135 41.9245 678.363 41.7031C678.591 41.4818 678.861 41.3711 679.174 41.3711C679.486 41.3711 679.753 41.4818 679.975 41.7031C680.202 41.9245 680.316 42.1914 680.316 42.5039C680.316 42.8164 680.202 43.0833 679.975 43.3047C679.753 43.526 679.486 43.6367 679.174 43.6367ZM679.613 51.5664C679.613 51.957 679.623 52.543 679.643 53.3242C679.669 54.099 679.682 54.6816 679.682 55.0723C679.682 55.3587 679.594 55.5931 679.418 55.7754C679.242 55.9577 679.011 56.0488 678.725 56.0488C678.445 56.0488 678.214 55.9577 678.031 55.7754C677.855 55.5931 677.768 55.3587 677.768 55.0723C677.768 54.6816 677.755 54.099 677.729 53.3242C677.709 52.543 677.699 51.957 677.699 51.5664C677.699 50.9544 677.732 50.1927 677.797 49.2812C677.862 48.3633 677.895 47.5983 677.895 46.9863C677.895 46.6934 677.982 46.4557 678.158 46.2734C678.34 46.0911 678.572 46 678.852 46C679.132 46 679.359 46.0911 679.535 46.2734C679.717 46.4557 679.809 46.6934 679.809 46.9863C679.809 47.5983 679.776 48.3633 679.711 49.2812C679.646 50.1927 679.613 50.9544 679.613 51.5664ZM686.576 56.5762C685.482 56.5762 684.542 56.1725 683.754 55.3652C682.875 54.4668 682.413 53.2591 682.367 51.7422C682.328 50.2708 682.699 48.9753 683.48 47.8555C684.392 46.5339 685.661 45.873 687.289 45.873C688.591 45.873 689.577 46.4688 690.248 47.6602C690.782 48.6237 691.039 49.7826 691.02 51.1367C691 52.582 690.622 53.8158 689.887 54.8379C689.053 55.9967 687.95 56.5762 686.576 56.5762ZM687.162 47.8555C686.205 47.849 685.46 48.3047 684.926 49.2227C684.503 49.9583 684.291 50.7982 684.291 51.7422C684.291 52.6862 684.548 53.4219 685.062 53.9492C685.492 54.3854 685.997 54.6035 686.576 54.6035C687.253 54.6035 687.836 54.3561 688.324 53.8613C688.878 53.3145 689.171 52.5755 689.203 51.6445C689.294 49.125 688.614 47.862 687.162 47.8555ZM700.932 56.6934C700.372 56.6934 700.056 56.3874 699.984 55.7754L699.711 53.6367C699.62 52.875 699.574 52.1621 699.574 51.498C699.574 51.3158 699.584 51.0065 699.604 50.5703C699.63 50.1341 699.643 49.8249 699.643 49.6426C699.643 48.2363 699.382 47.5332 698.861 47.5332C698.132 47.5332 697.436 47.9661 696.771 48.832C696.173 49.6198 695.704 50.6159 695.365 51.8203C695.352 52.0742 695.323 52.3932 695.277 52.7773C695.238 53.1029 695.219 53.4186 695.219 53.7246C695.219 53.9199 695.238 54.2129 695.277 54.6035C695.316 54.9941 695.336 55.2871 695.336 55.4824C695.336 55.7754 695.245 56.013 695.062 56.1953C694.887 56.3776 694.659 56.4688 694.379 56.4688C694.092 56.4688 693.861 56.3776 693.686 56.1953C693.51 56.013 693.422 55.7754 693.422 55.4824C693.422 55.2871 693.399 54.9941 693.354 54.6035C693.314 54.2129 693.295 53.9199 693.295 53.7246C693.295 53.054 693.34 52.1263 693.432 50.9414C693.529 49.75 693.578 48.819 693.578 48.1484C693.578 47.9401 693.565 47.6309 693.539 47.2207C693.52 46.8105 693.51 46.5013 693.51 46.293C693.51 46.013 693.601 45.7852 693.783 45.6094C693.972 45.4271 694.203 45.3359 694.477 45.3359C695.076 45.3359 695.404 45.7591 695.463 46.6055L695.492 47.748C696.586 46.2897 697.709 45.5605 698.861 45.5605C699.903 45.5605 700.629 46.0195 701.039 46.9375C701.319 47.5495 701.472 48.4544 701.498 49.6523V50.6387L701.488 51.5469C701.488 52.0872 701.557 52.7871 701.693 53.6465C701.837 54.4993 701.908 55.1927 701.908 55.7266C701.908 56.013 701.814 56.2441 701.625 56.4199C701.443 56.6022 701.212 56.6934 700.932 56.6934ZM711.752 43.6367C711.439 43.6367 711.169 43.526 710.941 43.3047C710.714 43.0833 710.6 42.8164 710.6 42.5039C710.6 42.1914 710.714 41.9245 710.941 41.7031C711.169 41.4818 711.439 41.3711 711.752 41.3711C712.064 41.3711 712.331 41.4818 712.553 41.7031C712.781 41.9245 712.895 42.1914 712.895 42.5039C712.895 42.8164 712.781 43.0833 712.553 43.3047C712.331 43.526 712.064 43.6367 711.752 43.6367ZM712.191 51.5664C712.191 51.957 712.201 52.543 712.221 53.3242C712.247 54.099 712.26 54.6816 712.26 55.0723C712.26 55.3587 712.172 55.5931 711.996 55.7754C711.82 55.9577 711.589 56.0488 711.303 56.0488C711.023 56.0488 710.792 55.9577 710.609 55.7754C710.434 55.5931 710.346 55.3587 710.346 55.0723C710.346 54.6816 710.333 54.099 710.307 53.3242C710.287 52.543 710.277 51.957 710.277 51.5664C710.277 50.9544 710.31 50.1927 710.375 49.2812C710.44 48.3633 710.473 47.5983 710.473 46.9863C710.473 46.6934 710.561 46.4557 710.736 46.2734C710.919 46.0911 711.15 46 711.43 46C711.71 46 711.938 46.0911 712.113 46.2734C712.296 46.4557 712.387 46.6934 712.387 46.9863C712.387 47.5983 712.354 48.3633 712.289 49.2812C712.224 50.1927 712.191 50.9544 712.191 51.5664ZM722.982 56.6934C722.423 56.6934 722.107 56.3874 722.035 55.7754L721.762 53.6367C721.671 52.875 721.625 52.1621 721.625 51.498C721.625 51.3158 721.635 51.0065 721.654 50.5703C721.68 50.1341 721.693 49.8249 721.693 49.6426C721.693 48.2363 721.433 47.5332 720.912 47.5332C720.183 47.5332 719.486 47.9661 718.822 48.832C718.223 49.6198 717.755 50.6159 717.416 51.8203C717.403 52.0742 717.374 52.3932 717.328 52.7773C717.289 53.1029 717.27 53.4186 717.27 53.7246C717.27 53.9199 717.289 54.2129 717.328 54.6035C717.367 54.9941 717.387 55.2871 717.387 55.4824C717.387 55.7754 717.296 56.013 717.113 56.1953C716.938 56.3776 716.71 56.4688 716.43 56.4688C716.143 56.4688 715.912 56.3776 715.736 56.1953C715.561 56.013 715.473 55.7754 715.473 55.4824C715.473 55.2871 715.45 54.9941 715.404 54.6035C715.365 54.2129 715.346 53.9199 715.346 53.7246C715.346 53.054 715.391 52.1263 715.482 50.9414C715.58 49.75 715.629 48.819 715.629 48.1484C715.629 47.9401 715.616 47.6309 715.59 47.2207C715.57 46.8105 715.561 46.5013 715.561 46.293C715.561 46.013 715.652 45.7852 715.834 45.6094C716.023 45.4271 716.254 45.3359 716.527 45.3359C717.126 45.3359 717.455 45.7591 717.514 46.6055L717.543 47.748C718.637 46.2897 719.76 45.5605 720.912 45.5605C721.954 45.5605 722.68 46.0195 723.09 46.9375C723.37 47.5495 723.523 48.4544 723.549 49.6523V50.6387L723.539 51.5469C723.539 52.0872 723.607 52.7871 723.744 53.6465C723.887 54.4993 723.959 55.1927 723.959 55.7266C723.959 56.013 723.865 56.2441 723.676 56.4199C723.493 56.6022 723.262 56.6934 722.982 56.6934ZM738.471 47.6797C738.334 47.6797 738.171 47.6732 737.982 47.6602C737.8 47.6471 737.641 47.6406 737.504 47.6406C737.354 47.6406 736.911 47.6895 736.176 47.7871L736.361 53.5586L736.371 53.9883L736.381 54.4863C736.407 55.9121 736.065 56.625 735.355 56.625C735.095 56.625 734.867 56.5404 734.672 56.3711C734.483 56.2018 734.389 55.9902 734.389 55.7363C734.389 55.4889 734.398 55.1178 734.418 54.623C734.438 54.1283 734.447 53.7572 734.447 53.5098L734.252 47.8066C733.777 47.7871 733.054 47.7318 732.084 47.6406C731.505 47.5625 731.215 47.2402 731.215 46.6738C731.215 46.3874 731.303 46.1497 731.479 45.9609C731.654 45.7721 731.879 45.6777 732.152 45.6777L734.203 45.8438C734.203 45.5117 734.187 45.069 734.154 44.5156C734.128 43.9557 734.115 43.5521 734.115 43.3047C734.115 43.0312 734.21 42.8066 734.398 42.6309C734.587 42.4486 734.818 42.3574 735.092 42.3574C735.678 42.3574 736.02 42.8359 736.117 43.793C736.137 44.0339 736.146 44.3236 736.146 44.6621L736.127 45.2285L736.117 45.834C736.924 45.7298 737.387 45.6777 737.504 45.6777C738.181 45.6777 738.624 45.7103 738.832 45.7754C739.229 45.9056 739.428 46.2116 739.428 46.6934C739.428 46.9798 739.337 47.2174 739.154 47.4062C738.979 47.5885 738.751 47.6797 738.471 47.6797ZM749.545 56.6055C749.083 56.6055 748.78 56.3581 748.637 55.8633C748.487 55.3294 748.35 54.571 748.227 53.5879C748.109 52.6439 748.051 51.8691 748.051 51.2637C748.051 51.0944 748.057 50.8372 748.07 50.4922C748.09 50.1471 748.1 49.89 748.1 49.7207C748.1 48.4967 747.794 47.8848 747.182 47.8848C746.355 47.8848 745.616 48.2591 744.965 49.0078C744.633 49.3919 744.177 50.1243 743.598 51.2051C743.598 53.6855 743.493 55.1536 743.285 55.6094C743.103 56.013 742.82 56.2148 742.436 56.2148C742.169 56.2148 741.934 56.1237 741.732 55.9414C741.531 55.7591 741.43 55.5378 741.43 55.2773C741.43 55.1862 741.459 55.043 741.518 54.8477C741.57 54.6849 741.605 54.2096 741.625 53.4219L741.654 51.9766L741.684 44.7988C741.729 43.9915 741.752 43.4479 741.752 43.168C741.752 42.8359 741.719 42.5234 741.654 42.2305C741.596 41.931 741.566 41.6217 741.566 41.3027C741.566 41.0293 741.661 40.8047 741.85 40.6289C742.038 40.4466 742.27 40.3555 742.543 40.3555C743.077 40.3555 743.389 40.6419 743.48 41.2148C743.585 41.8464 743.637 42.416 743.637 42.9238C743.637 43.6074 743.614 44.3203 743.568 45.0625C743.529 45.7721 743.513 46.485 743.52 47.2012L743.529 48.0605C744.063 47.3444 744.633 46.8105 745.238 46.459C745.85 46.1009 746.498 45.9219 747.182 45.9219C748.262 45.9219 749.005 46.2734 749.408 46.9766C749.695 47.4714 749.857 48.3047 749.896 49.4766L749.975 51.3418L750.17 53.373C750.261 54.1348 750.372 54.8053 750.502 55.3848C750.528 55.4954 750.541 55.5898 750.541 55.668C750.541 55.9349 750.443 56.1562 750.248 56.332C750.053 56.5143 749.818 56.6055 749.545 56.6055ZM757.494 56.4492C756.023 56.4492 754.831 56.0814 753.92 55.3457C752.924 54.5319 752.426 53.3926 752.426 51.9277C752.426 50.235 752.836 48.8158 753.656 47.6699C754.548 46.4199 755.74 45.7949 757.23 45.7949C758.311 45.7949 759.193 45.9772 759.877 46.3418C760.717 46.791 761.137 47.4811 761.137 48.4121C761.137 49.0632 760.769 49.6556 760.033 50.1895C759.708 50.4238 759.018 50.7884 757.963 51.2832L754.232 53.0508C754.597 53.5911 755.049 53.998 755.59 54.2715C756.137 54.5449 756.771 54.6816 757.494 54.6816C757.943 54.6816 758.471 54.597 759.076 54.4277C759.844 54.2129 760.339 53.9329 760.561 53.5879C760.782 53.2363 761.02 53.0605 761.273 53.0605C761.501 53.0605 761.703 53.1484 761.879 53.3242C762.061 53.4935 762.152 53.6921 762.152 53.9199C762.152 54.6426 761.57 55.2643 760.404 55.7852C759.408 56.2279 758.438 56.4492 757.494 56.4492ZM757.23 47.5527C756.436 47.5527 755.775 47.862 755.248 48.4805C754.721 49.0924 754.327 50.0169 754.066 51.2539L757.064 49.8281C758.243 49.2552 759.083 48.7572 759.584 48.334C759.024 47.8132 758.24 47.5527 757.23 47.5527ZM781.557 47.2598C781.049 49.3822 780.385 51.7812 779.564 54.457C779.382 55.0495 779.079 55.6582 778.656 56.2832C778.428 56.6283 778.119 56.7975 777.729 56.791C777.019 56.778 776.465 55.8958 776.068 54.1445C775.938 53.5846 775.805 52.8229 775.668 51.8594L775.346 49.6816L774.545 51.5469L773.061 55.5801C772.976 55.8275 772.852 56.0163 772.689 56.1465C772.494 56.5241 772.182 56.7194 771.752 56.7324C771.257 56.752 770.779 55.7819 770.316 53.8223C770.082 52.8132 769.848 51.446 769.613 49.7207L769.379 48.2559C769.294 47.6699 769.252 47.1784 769.252 46.7812C769.252 46.5078 769.346 46.2832 769.535 46.1074C769.73 45.9251 769.965 45.834 770.238 45.834C770.733 45.834 771.039 46.1042 771.156 46.6445C771.241 47.0286 771.309 47.5039 771.361 48.0703L771.508 49.5059L772.084 53.8906C772.807 51.8854 773.555 49.5742 774.33 46.957C774.545 46.2344 774.919 45.873 775.453 45.873C775.967 45.873 776.316 46.2767 776.498 47.084C776.667 47.8457 776.879 49.0176 777.133 50.5996C777.393 52.2402 777.624 53.5195 777.826 54.4375L778.539 51.7812L779.799 46.459C779.896 46.0618 780.176 45.8633 780.639 45.8633C780.912 45.8633 781.15 45.9577 781.352 46.1465C781.553 46.3288 781.654 46.5501 781.654 46.8105C781.654 46.8431 781.622 46.9928 781.557 47.2598ZM787.221 56.5762C786.127 56.5762 785.186 56.1725 784.398 55.3652C783.52 54.4668 783.057 53.2591 783.012 51.7422C782.973 50.2708 783.344 48.9753 784.125 47.8555C785.036 46.5339 786.306 45.873 787.934 45.873C789.236 45.873 790.222 46.4688 790.893 47.6602C791.426 48.6237 791.684 49.7826 791.664 51.1367C791.645 52.582 791.267 53.8158 790.531 54.8379C789.698 55.9967 788.594 56.5762 787.221 56.5762ZM787.807 47.8555C786.85 47.849 786.104 48.3047 785.57 49.2227C785.147 49.9583 784.936 50.7982 784.936 51.7422C784.936 52.6862 785.193 53.4219 785.707 53.9492C786.137 54.3854 786.641 54.6035 787.221 54.6035C787.898 54.6035 788.48 54.3561 788.969 53.8613C789.522 53.3145 789.815 52.5755 789.848 51.6445C789.939 49.125 789.258 47.862 787.807 47.8555ZM801.684 48.7832C801.638 49.597 801.312 50.0039 800.707 50.0039C800.147 50.0039 799.867 49.6816 799.867 49.0371C799.867 48.9134 799.857 48.6855 799.838 48.3535L799.809 47.5332C798.78 47.6569 797.956 47.9466 797.338 48.4023C796.758 48.8255 796.277 49.4635 795.893 50.3164L795.912 55.668C795.912 56.3255 795.59 56.6543 794.945 56.6543C794.372 56.6543 794.086 56.3255 794.086 55.668V48.8125C794.086 48.5977 794.092 48.2754 794.105 47.8457C794.125 47.416 794.135 47.0938 794.135 46.8789C794.135 46.2214 794.421 45.8926 794.994 45.8926C795.632 45.8926 795.954 46.4329 795.961 47.5137C797.211 46.3092 798.598 45.707 800.121 45.707C800.648 45.707 801.042 45.9056 801.303 46.3027C801.563 46.6999 801.693 47.2988 801.693 48.0996C801.693 48.4382 801.69 48.666 801.684 48.7832ZM811.83 56.4004C811.472 56.4004 811.195 56.2116 811 55.834C810.661 55.1764 810.15 54.3984 809.467 53.5L807.738 51.1465C807.361 51.446 806.775 51.8659 805.98 52.4062C805.909 53.4154 805.873 54.3984 805.873 55.3555C805.873 55.6484 805.782 55.8861 805.6 56.0684C805.424 56.2507 805.196 56.3418 804.916 56.3418C804.258 56.3418 803.93 55.8991 803.93 55.0137C803.93 54.4733 803.965 53.666 804.037 52.5918C804.115 51.5111 804.154 50.7005 804.154 50.1602C804.154 49.1706 804.167 48.041 804.193 46.7715C804.226 45.4954 804.242 44.3691 804.242 43.3926C804.242 43.0996 804.226 42.7546 804.193 42.3574C804.167 41.9603 804.154 41.6152 804.154 41.3223C804.154 41.0293 804.242 40.7917 804.418 40.6094C804.6 40.4271 804.831 40.3359 805.111 40.3359C805.391 40.3359 805.619 40.4271 805.795 40.6094C805.977 40.7917 806.068 41.0293 806.068 41.3223C806.068 41.6217 806.085 41.9766 806.117 42.3867C806.15 42.7904 806.166 43.1419 806.166 43.4414L806.098 46.5859C806.065 47.7188 806.055 48.8516 806.068 49.9844C806.954 49.3073 807.807 48.5651 808.627 47.7578L810.775 45.541C810.99 45.3197 811.221 45.209 811.469 45.209C811.723 45.209 811.951 45.3099 812.152 45.5117C812.361 45.7135 812.465 45.9479 812.465 46.2148C812.465 46.4362 812.37 46.6543 812.182 46.8691C811.381 47.8066 810.395 48.8125 809.223 49.8867L811.352 52.7871C812.348 54.1478 812.846 55.0332 812.846 55.4434C812.846 55.7038 812.742 55.9284 812.533 56.1172C812.331 56.306 812.097 56.4004 811.83 56.4004ZM821.088 48.4805C820.73 48.4805 820.479 48.36 820.336 48.1191C820.238 47.9499 820.154 47.5983 820.082 47.0645C819.594 47.1882 818.842 47.416 817.826 47.748C816.778 48.1647 816.251 48.679 816.244 49.291C816.439 49.3626 816.632 49.4147 816.82 49.4473C818.318 49.7142 819.431 50.082 820.16 50.5508C821.221 51.2344 821.752 52.224 821.752 53.5195C821.752 54.5807 821.293 55.3815 820.375 55.9219C819.613 56.3646 818.65 56.5859 817.484 56.5859C816.632 56.5859 815.818 56.4427 815.043 56.1562C814.04 55.7917 813.539 55.2839 813.539 54.6328C813.539 54.3724 813.64 54.1445 813.842 53.9492C814.05 53.7539 814.285 53.6562 814.545 53.6562C814.747 53.6562 815.007 53.8125 815.326 54.125C815.482 54.2747 815.834 54.3984 816.381 54.4961C816.817 54.5742 817.185 54.6133 817.484 54.6133C818.031 54.6133 818.513 54.5482 818.93 54.418C819.535 54.2292 819.838 53.9297 819.838 53.5195C819.838 52.6341 819.219 52.0352 817.982 51.7227L816.967 51.498C816.101 51.3092 815.486 51.0879 815.121 50.834C814.594 50.4694 814.33 49.9193 814.33 49.1836C814.33 47.8229 814.971 46.8529 816.254 46.2734C816.645 46.0977 817.27 45.8893 818.129 45.6484C818.988 45.401 819.604 45.1927 819.975 45.0234C820.242 44.9062 820.531 44.8477 820.844 44.8477C821.124 44.8477 821.352 44.9388 821.527 45.1211C821.71 45.3034 821.801 45.541 821.801 45.834C821.801 46.0228 821.84 46.2995 821.918 46.6641C822.003 47.0286 822.045 47.3053 822.045 47.4941C822.045 47.7871 821.954 48.0247 821.771 48.207C821.596 48.3893 821.368 48.4805 821.088 48.4805ZM637.758 73.043C637.341 73.043 637.029 72.7988 636.82 72.3105C636.638 71.8939 636.469 71.64 636.312 71.5488C636.176 71.4772 635.837 71.4414 635.297 71.4414C634.353 71.4414 633.305 72.1641 632.152 73.6094C630.59 75.5495 629.809 77.3887 629.809 79.127C629.809 79.9668 630.079 80.6895 630.619 81.2949C631.173 81.9199 631.84 82.2324 632.621 82.2324C633.292 82.2324 633.965 82.0599 634.643 81.7148C635.02 81.5195 635.6 81.1354 636.381 80.5625C636.752 80.2891 637.032 80.1523 637.221 80.1523C637.501 80.1523 637.735 80.2598 637.924 80.4746C638.113 80.6829 638.207 80.9173 638.207 81.1777C638.207 81.4707 638.083 81.7279 637.836 81.9492C636.117 83.4727 634.379 84.2344 632.621 84.2344C631.273 84.2344 630.134 83.7168 629.203 82.6816C628.305 81.679 627.855 80.4941 627.855 79.127C627.855 76.9199 628.78 74.6576 630.629 72.3398C632.172 70.4062 633.728 69.4395 635.297 69.4395C635.616 69.4395 635.902 69.4557 636.156 69.4883C636.41 69.5143 636.635 69.5599 636.83 69.625C637.058 69.293 637.354 69.127 637.719 69.127C638.168 69.127 638.451 69.4232 638.568 70.0156C638.673 70.543 638.725 71.1908 638.725 71.959C638.725 72.2259 638.653 72.4603 638.51 72.6621C638.334 72.916 638.083 73.043 637.758 73.043ZM642.865 76.3242L642.719 81.1777C642.719 81.6921 642.693 82.4473 642.641 83.4434C642.576 84.0944 642.257 84.4199 641.684 84.4199C641.046 84.4199 640.727 84.0879 640.727 83.4238C640.727 82.6361 640.762 81.4544 640.834 79.8789C640.906 78.2969 640.941 77.112 640.941 76.3242C640.941 75.2956 640.958 74.1204 640.99 72.7988C641.023 71.4707 641.039 70.2923 641.039 69.2637C641.039 68.6126 641.358 68.2871 641.996 68.2871C642.641 68.2871 642.963 68.6126 642.963 69.2637C642.963 70.2923 642.947 71.4707 642.914 72.7988C642.882 74.1204 642.865 75.2956 642.865 76.3242ZM647.738 71.6367C647.426 71.6367 647.156 71.526 646.928 71.3047C646.7 71.0833 646.586 70.8164 646.586 70.5039C646.586 70.1914 646.7 69.9245 646.928 69.7031C647.156 69.4818 647.426 69.3711 647.738 69.3711C648.051 69.3711 648.318 69.4818 648.539 69.7031C648.767 69.9245 648.881 70.1914 648.881 70.5039C648.881 70.8164 648.767 71.0833 648.539 71.3047C648.318 71.526 648.051 71.6367 647.738 71.6367ZM648.178 79.5664C648.178 79.957 648.188 80.543 648.207 81.3242C648.233 82.099 648.246 82.6816 648.246 83.0723C648.246 83.3587 648.158 83.5931 647.982 83.7754C647.807 83.9577 647.576 84.0488 647.289 84.0488C647.009 84.0488 646.778 83.9577 646.596 83.7754C646.42 83.5931 646.332 83.3587 646.332 83.0723C646.332 82.6816 646.319 82.099 646.293 81.3242C646.273 80.543 646.264 79.957 646.264 79.5664C646.264 78.9544 646.296 78.1927 646.361 77.2812C646.426 76.3633 646.459 75.5983 646.459 74.9863C646.459 74.6934 646.547 74.4557 646.723 74.2734C646.905 74.0911 647.136 74 647.416 74C647.696 74 647.924 74.0911 648.1 74.2734C648.282 74.4557 648.373 74.6934 648.373 74.9863C648.373 75.5983 648.34 76.3633 648.275 77.2812C648.21 78.1927 648.178 78.9544 648.178 79.5664ZM655.893 84.6152C654.558 84.6152 653.445 84.2116 652.553 83.4043C651.615 82.5579 651.146 81.4414 651.146 80.0547C651.146 78.7331 651.586 77.3691 652.465 75.9629C653.441 74.4004 654.542 73.6191 655.766 73.6191C656.404 73.6191 657.117 73.7689 657.904 74.0684C658.9 74.4525 659.398 74.9212 659.398 75.4746C659.398 75.722 659.317 75.9434 659.154 76.1387C658.992 76.3275 658.79 76.4219 658.549 76.4219C658.36 76.4219 658.194 76.3665 658.051 76.2559C657.914 76.1387 657.781 76.0247 657.65 75.9141C657.266 75.6081 656.638 75.4551 655.766 75.4551C655.102 75.4551 654.444 76.0475 653.793 77.2324C653.201 78.3197 652.904 79.2604 652.904 80.0547C652.904 80.9141 653.197 81.5911 653.783 82.0859C654.33 82.5482 655.033 82.7793 655.893 82.7793C656.283 82.7793 656.7 82.6751 657.143 82.4668L658.275 81.8613C658.471 81.7572 658.611 81.7051 658.695 81.7051C658.936 81.7051 659.145 81.8027 659.32 81.998C659.496 82.1868 659.584 82.4049 659.584 82.6523C659.584 83.1276 659.083 83.5866 658.08 84.0293C657.201 84.4199 656.472 84.6152 655.893 84.6152ZM669.887 84.4004C669.529 84.4004 669.252 84.2116 669.057 83.834C668.718 83.1764 668.207 82.3984 667.523 81.5L665.795 79.1465C665.417 79.446 664.831 79.8659 664.037 80.4062C663.965 81.4154 663.93 82.3984 663.93 83.3555C663.93 83.6484 663.839 83.8861 663.656 84.0684C663.48 84.2507 663.253 84.3418 662.973 84.3418C662.315 84.3418 661.986 83.8991 661.986 83.0137C661.986 82.4733 662.022 81.666 662.094 80.5918C662.172 79.5111 662.211 78.7005 662.211 78.1602C662.211 77.1706 662.224 76.041 662.25 74.7715C662.283 73.4954 662.299 72.3691 662.299 71.3926C662.299 71.0996 662.283 70.7546 662.25 70.3574C662.224 69.9603 662.211 69.6152 662.211 69.3223C662.211 69.0293 662.299 68.7917 662.475 68.6094C662.657 68.4271 662.888 68.3359 663.168 68.3359C663.448 68.3359 663.676 68.4271 663.852 68.6094C664.034 68.7917 664.125 69.0293 664.125 69.3223C664.125 69.6217 664.141 69.9766 664.174 70.3867C664.206 70.7904 664.223 71.1419 664.223 71.4414L664.154 74.5859C664.122 75.7188 664.112 76.8516 664.125 77.9844C665.01 77.3073 665.863 76.5651 666.684 75.7578L668.832 73.541C669.047 73.3197 669.278 73.209 669.525 73.209C669.779 73.209 670.007 73.3099 670.209 73.5117C670.417 73.7135 670.521 73.9479 670.521 74.2148C670.521 74.4362 670.427 74.6543 670.238 74.8691C669.438 75.8066 668.451 76.8125 667.279 77.8867L669.408 80.7871C670.404 82.1478 670.902 83.0332 670.902 83.4434C670.902 83.7038 670.798 83.9284 670.59 84.1172C670.388 84.306 670.154 84.4004 669.887 84.4004ZM686.703 84.6055C686.241 84.6055 685.938 84.3581 685.795 83.8633C685.645 83.3294 685.508 82.571 685.385 81.5879C685.268 80.6439 685.209 79.8691 685.209 79.2637C685.209 79.0944 685.215 78.8372 685.229 78.4922C685.248 78.1471 685.258 77.89 685.258 77.7207C685.258 76.4967 684.952 75.8848 684.34 75.8848C683.513 75.8848 682.774 76.2591 682.123 77.0078C681.791 77.3919 681.335 78.1243 680.756 79.2051C680.756 81.6855 680.652 83.1536 680.443 83.6094C680.261 84.013 679.978 84.2148 679.594 84.2148C679.327 84.2148 679.092 84.1237 678.891 83.9414C678.689 83.7591 678.588 83.5378 678.588 83.2773C678.588 83.1862 678.617 83.043 678.676 82.8477C678.728 82.6849 678.764 82.2096 678.783 81.4219L678.812 79.9766L678.842 72.7988C678.887 71.9915 678.91 71.4479 678.91 71.168C678.91 70.8359 678.878 70.5234 678.812 70.2305C678.754 69.931 678.725 69.6217 678.725 69.3027C678.725 69.0293 678.819 68.8047 679.008 68.6289C679.197 68.4466 679.428 68.3555 679.701 68.3555C680.235 68.3555 680.548 68.6419 680.639 69.2148C680.743 69.8464 680.795 70.416 680.795 70.9238C680.795 71.6074 680.772 72.3203 680.727 73.0625C680.688 73.7721 680.671 74.485 680.678 75.2012L680.688 76.0605C681.221 75.3444 681.791 74.8105 682.396 74.459C683.008 74.1009 683.656 73.9219 684.34 73.9219C685.421 73.9219 686.163 74.2734 686.566 74.9766C686.853 75.4714 687.016 76.3047 687.055 77.4766L687.133 79.3418L687.328 81.373C687.419 82.1348 687.53 82.8053 687.66 83.3848C687.686 83.4954 687.699 83.5898 687.699 83.668C687.699 83.9349 687.602 84.1562 687.406 84.332C687.211 84.5143 686.977 84.6055 686.703 84.6055ZM694.652 84.4492C693.181 84.4492 691.99 84.0814 691.078 83.3457C690.082 82.5319 689.584 81.3926 689.584 79.9277C689.584 78.235 689.994 76.8158 690.814 75.6699C691.706 74.4199 692.898 73.7949 694.389 73.7949C695.469 73.7949 696.352 73.9772 697.035 74.3418C697.875 74.791 698.295 75.4811 698.295 76.4121C698.295 77.0632 697.927 77.6556 697.191 78.1895C696.866 78.4238 696.176 78.7884 695.121 79.2832L691.391 81.0508C691.755 81.5911 692.208 81.998 692.748 82.2715C693.295 82.5449 693.93 82.6816 694.652 82.6816C695.102 82.6816 695.629 82.597 696.234 82.4277C697.003 82.2129 697.497 81.9329 697.719 81.5879C697.94 81.2363 698.178 81.0605 698.432 81.0605C698.66 81.0605 698.861 81.1484 699.037 81.3242C699.219 81.4935 699.311 81.6921 699.311 81.9199C699.311 82.6426 698.728 83.2643 697.562 83.7852C696.566 84.2279 695.596 84.4492 694.652 84.4492ZM694.389 75.5527C693.594 75.5527 692.934 75.862 692.406 76.4805C691.879 77.0924 691.485 78.0169 691.225 79.2539L694.223 77.8281C695.401 77.2552 696.241 76.7572 696.742 76.334C696.182 75.8132 695.398 75.5527 694.389 75.5527ZM708.646 76.7832C708.601 77.597 708.275 78.0039 707.67 78.0039C707.11 78.0039 706.83 77.6816 706.83 77.0371C706.83 76.9134 706.82 76.6855 706.801 76.3535L706.771 75.5332C705.743 75.6569 704.919 75.9466 704.301 76.4023C703.721 76.8255 703.24 77.4635 702.855 78.3164L702.875 83.668C702.875 84.3255 702.553 84.6543 701.908 84.6543C701.335 84.6543 701.049 84.3255 701.049 83.668V76.8125C701.049 76.5977 701.055 76.2754 701.068 75.8457C701.088 75.416 701.098 75.0938 701.098 74.8789C701.098 74.2214 701.384 73.8926 701.957 73.8926C702.595 73.8926 702.917 74.4329 702.924 75.5137C704.174 74.3092 705.561 73.707 707.084 73.707C707.611 73.707 708.005 73.9056 708.266 74.3027C708.526 74.6999 708.656 75.2988 708.656 76.0996C708.656 76.4382 708.653 76.666 708.646 76.7832ZM715.219 84.4492C713.747 84.4492 712.556 84.0814 711.645 83.3457C710.648 82.5319 710.15 81.3926 710.15 79.9277C710.15 78.235 710.561 76.8158 711.381 75.6699C712.273 74.4199 713.464 73.7949 714.955 73.7949C716.036 73.7949 716.918 73.9772 717.602 74.3418C718.441 74.791 718.861 75.4811 718.861 76.4121C718.861 77.0632 718.493 77.6556 717.758 78.1895C717.432 78.4238 716.742 78.7884 715.688 79.2832L711.957 81.0508C712.322 81.5911 712.774 81.998 713.314 82.2715C713.861 82.5449 714.496 82.6816 715.219 82.6816C715.668 82.6816 716.195 82.597 716.801 82.4277C717.569 82.2129 718.064 81.9329 718.285 81.5879C718.507 81.2363 718.744 81.0605 718.998 81.0605C719.226 81.0605 719.428 81.1484 719.604 81.3242C719.786 81.4935 719.877 81.6921 719.877 81.9199C719.877 82.6426 719.294 83.2643 718.129 83.7852C717.133 84.2279 716.163 84.4492 715.219 84.4492ZM714.955 75.5527C714.161 75.5527 713.5 75.862 712.973 76.4805C712.445 77.0924 712.051 78.0169 711.791 79.2539L714.789 77.8281C715.967 77.2552 716.807 76.7572 717.309 76.334C716.749 75.8132 715.964 75.5527 714.955 75.5527ZM723.49 69.1953V80.0645C723.49 80.6439 723.201 80.9336 722.621 80.9336C722.042 80.9336 721.752 80.6439 721.752 80.0645C721.752 79.7975 721.742 79.4004 721.723 78.873C721.71 78.3392 721.703 77.9421 721.703 77.6816C721.703 76.7376 721.71 75.3249 721.723 73.4434C721.742 71.5553 721.752 70.1393 721.752 69.1953C721.752 68.6159 722.042 68.3262 722.621 68.3262C723.201 68.3262 723.49 68.6159 723.49 69.1953ZM723.5 83.7754C723.5 84.0098 723.406 84.2116 723.217 84.3809C723.035 84.5566 722.826 84.6445 722.592 84.6445C722.331 84.6445 722.071 84.4753 721.811 84.1367C721.557 83.8177 721.43 83.5247 721.43 83.2578C721.43 83.0234 721.521 82.8216 721.703 82.6523C721.892 82.4831 722.107 82.3984 722.348 82.3984C722.602 82.3984 722.862 82.5677 723.129 82.9062C723.376 83.2253 723.5 83.515 723.5 83.7754Z" fill="black"/>
</g>
</g>
</svg>
